<?xml version="1.0" encoding="UTF-8"?>
<svg xmlns="http://www.w3.org/2000/svg" width="1660" height="430" viewBox="0 0 1660 430">
  <rect x="0" y="0" width="1660" height="430" fill="#FFFFFF"/>
  <text x="830.0" y="56.7" text-anchor="middle" font-family='"Microsoft YaHei","Noto Sans CJK SC","SimHei",Arial,sans-serif' font-size="28" font-weight="800" fill="#263238"><tspan x="830.0" dy="0">图1-3 系统设计流程图</tspan></text> <rect x="38" y="172" width="178" height="112" rx="14" fill="#E8F1FF" stroke="#9CBCEB" stroke-width="2.2"/>
<circle cx="64" cy="197" r="15" fill="#FFFFFF" stroke="#9CBCEB" stroke-width="1.8"/>
<text x="64.0" y="199.9" text-anchor="middle" font-family='"Microsoft YaHei","Noto Sans CJK SC","SimHei",Arial,sans-serif' font-size="12" font-weight="700" fill="#52606D"><tspan x="64.0" dy="0">01</tspan></text>
<text x="127.0" y="237.1" text-anchor="middle" font-family='"Microsoft YaHei","Noto Sans CJK SC","SimHei",Arial,sans-serif' font-size="17" font-weight="700" fill="#263238"><tspan x="127.0" dy="0">需求分析</tspan></text> <line x1="216.0" y1="228.0" x2="231.2" y2="228.0" stroke="#334A5F" stroke-width="2.6" stroke-linecap="butt"/><polygon points="239.0,228.0 231.2,231.3 231.2,224.7" fill="#334A5F"/> <rect x="239" y="172" width="178" height="112" rx="14" fill="#E8F1FF" stroke="#9CBCEB" stroke-width="2.2"/>
<circle cx="265" cy="197" r="15" fill="#FFFFFF" stroke="#9CBCEB" stroke-width="1.8"/>
<text x="265.0" y="199.9" text-anchor="middle" font-family='"Microsoft YaHei","Noto Sans CJK SC","SimHei",Arial,sans-serif' font-size="12" font-weight="700" fill="#52606D"><tspan x="265.0" dy="0">02</tspan></text>
<text x="328.0" y="237.1" text-anchor="middle" font-family='"Microsoft YaHei","Noto Sans CJK SC","SimHei",Arial,sans-serif' font-size="17" font-weight="700" fill="#263238"><tspan x="328.0" dy="0">平台选型</tspan></text> <line x1="417.0" y1="228.0" x2="432.2" y2="228.0" stroke="#334A5F" stroke-width="2.6" stroke-linecap="butt"/><polygon points="440.0,228.0 432.2,231.3 432.2,224.7" fill="#334A5F"/> <rect x="440" y="172" width="178" height="112" rx="14" fill="#E7F7F2" stroke="#8BCDBB" stroke-width="2.2"/>
<circle cx="466" cy="197" r="15" fill="#FFFFFF" stroke="#8BCDBB" stroke-width="1.8"/>
<text x="466.0" y="199.9" text-anchor="middle" font-family='"Microsoft YaHei","Noto Sans CJK SC","SimHei",Arial,sans-serif' font-size="12" font-weight="700" fill="#52606D"><tspan x="466.0" dy="0">03</tspan></text>
<text x="529.0" y="226.1" text-anchor="middle" font-family='"Microsoft YaHei","Noto Sans CJK SC","SimHei",Arial,sans-serif' font-size="17" font-weight="700" fill="#263238"><tspan x="529.0" dy="0">摄像头采集</tspan><tspan x="529.0" dy="22">链路搭建</tspan></text> <line x1="618.0" y1="228.0" x2="633.2" y2="228.0" stroke="#334A5F" stroke-width="2.6" stroke-linecap="butt"/><polygon points="641.0,228.0 633.2,231.3 633.2,224.7" fill="#334A5F"/> <rect x="641" y="172" width="178" height="112" rx="14" fill="#E7F7F2" stroke="#8BCDBB" stroke-width="2.2"/>
<circle cx="667" cy="197" r="15" fill="#FFFFFF" stroke="#8BCDBB" stroke-width="1.8"/>
<text x="667.0" y="199.9" text-anchor="middle" font-family='"Microsoft YaHei","Noto Sans CJK SC","SimHei",Arial,sans-serif' font-size="12" font-weight="700" fill="#52606D"><tspan x="667.0" dy="0">04</tspan></text>
<text x="730.0" y="237.1" text-anchor="middle" font-family='"Microsoft YaHei","Noto Sans CJK SC","SimHei",Arial,sans-serif' font-size="17" font-weight="700" fill="#263238"><tspan x="730.0" dy="0">RKNN 模型部署</tspan></text> <line x1="819.0" y1="228.0" x2="834.2" y2="228.0" stroke="#334A5F" stroke-width="2.6" stroke-linecap="butt"/><polygon points="842.0,228.0 834.2,231.3 834.2,224.7" fill="#334A5F"/> <rect x="842" y="172" width="178" height="112" rx="14" fill="#EDF6F8" stroke="#9BBFC8" stroke-width="2.2"/>
<circle cx="868" cy="197" r="15" fill="#FFFFFF" stroke="#9BBFC8" stroke-width="1.8"/>
<text x="868.0" y="199.9" text-anchor="middle" font-family='"Microsoft YaHei","Noto Sans CJK SC","SimHei",Arial,sans-serif' font-size="12" font-weight="700" fill="#52606D"><tspan x="868.0" dy="0">05</tspan></text>
<text x="931.0" y="226.1" text-anchor="middle" font-family='"Microsoft YaHei","Noto Sans CJK SC","SimHei",Arial,sans-serif' font-size="17" font-weight="700" fill="#263238"><tspan x="931.0" dy="0">图像预处理</tspan><tspan x="931.0" dy="22">坐标映射</tspan></text> <line x1="1020.0" y1="228.0" x2="1035.2" y2="228.0" stroke="#334A5F" stroke-width="2.6" stroke-linecap="butt"/><polygon points="1043.0,228.0 1035.2,231.3 1035.2,224.7" fill="#334A5F"/> <rect x="1043" y="172" width="178" height="112" rx="14" fill="#FFF1D6" stroke="#D8B463" stroke-width="2.2"/>
<circle cx="1069" cy="197" r="15" fill="#FFFFFF" stroke="#D8B463" stroke-width="1.8"/>
<text x="1069.0" y="199.9" text-anchor="middle" font-family='"Microsoft YaHei","Noto Sans CJK SC","SimHei",Arial,sans-serif' font-size="12" font-weight="700" fill="#52606D"><tspan x="1069.0" dy="0">06</tspan></text>
<text x="1132.0" y="226.1" text-anchor="middle" font-family='"Microsoft YaHei","Noto Sans CJK SC","SimHei",Arial,sans-serif' font-size="17" font-weight="700" fill="#263238"><tspan x="1132.0" dy="0">模型后处理</tspan><tspan x="1132.0" dy="22">状态机设计</tspan></text> <line x1="1221.0" y1="228.0" x2="1236.2" y2="228.0" stroke="#334A5F" stroke-width="2.6" stroke-linecap="butt"/><polygon points="1244.0,228.0 1236.2,231.3 1236.2,224.7" fill="#334A5F"/> <rect x="1244" y="172" width="178" height="112" rx="14" fill="#FFF1D6" stroke="#D8B463" stroke-width="2.2"/>
<circle cx="1270" cy="197" r="15" fill="#FFFFFF" stroke="#D8B463" stroke-width="1.8"/>
<text x="1270.0" y="199.9" text-anchor="middle" font-family='"Microsoft YaHei","Noto Sans CJK SC","SimHei",Arial,sans-serif' font-size="12" font-weight="700" fill="#52606D"><tspan x="1270.0" dy="0">07</tspan></text>
<text x="1333.0" y="215.1" text-anchor="middle" font-family='"Microsoft YaHei","Noto Sans CJK SC","SimHei",Arial,sans-serif' font-size="17" font-weight="700" fill="#263238"><tspan x="1333.0" dy="0">本地显示</tspan><tspan x="1333.0" dy="22">视频推流</tspan><tspan x="1333.0" dy="22">MQTT 联动</tspan></text> <line x1="1422.0" y1="228.0" x2="1437.2" y2="228.0" stroke="#334A5F" stroke-width="2.6" stroke-linecap="butt"/><polygon points="1445.0,228.0 1437.2,231.3 1437.2,224.7" fill="#334A5F"/> <rect x="1445" y="172" width="178" height="112" rx="14" fill="#F2ECFF" stroke="#B8A2E6" stroke-width="2.2"/>
<circle cx="1471" cy="197" r="15" fill="#FFFFFF" stroke="#B8A2E6" stroke-width="1.8"/>
<text x="1471.0" y="199.9" text-anchor="middle" font-family='"Microsoft YaHei","Noto Sans CJK SC","SimHei",Arial,sans-serif' font-size="12" font-weight="700" fill="#52606D"><tspan x="1471.0" dy="0">08</tspan></text>
<text x="1534.0" y="226.1" text-anchor="middle" font-family='"Microsoft YaHei","Noto Sans CJK SC","SimHei",Arial,sans-serif' font-size="17" font-weight="700" fill="#263238"><tspan x="1534.0" dy="0">实机验证</tspan><tspan x="1534.0" dy="22">参数调整</tspan></text>
</svg>

