<?xml version="1.0" encoding="UTF-8"?>
<svg xmlns="http://www.w3.org/2000/svg" width="1500" height="790" viewBox="0 0 1500 790">
  <rect x="0" y="0" width="1500" height="790" fill="#FFFFFF"/>
  <text x="750.0" y="56.7" text-anchor="middle" font-family='"Microsoft YaHei","Noto Sans CJK SC","SimHei",Arial,sans-serif' font-size="28" font-weight="800" fill="#263238"><tspan x="750.0" dy="0">图1-1 系统功能示意图</tspan></text> <text x="200.0" y="116.3" text-anchor="middle" font-family='"Microsoft YaHei","Noto Sans CJK SC","SimHei",Arial,sans-serif' font-size="18" font-weight="600" fill="#52606D"><tspan x="200.0" dy="0">输入层</tspan></text> <text x="560.0" y="116.3" text-anchor="middle" font-family='"Microsoft YaHei","Noto Sans CJK SC","SimHei",Arial,sans-serif' font-size="18" font-weight="600" fill="#52606D"><tspan x="560.0" dy="0">端侧处理层</tspan></text> <text x="930.0" y="116.3" text-anchor="middle" font-family='"Microsoft YaHei","Noto Sans CJK SC","SimHei",Arial,sans-serif' font-size="18" font-weight="600" fill="#52606D"><tspan x="930.0" dy="0">功能层</tspan></text> <text x="1295.0" y="116.3" text-anchor="middle" font-family='"Microsoft YaHei","Noto Sans CJK SC","SimHei",Arial,sans-serif' font-size="18" font-weight="600" fill="#52606D"><tspan x="1295.0" dy="0">反馈层</tspan></text> <rect x="70" y="145" width="260" height="104" rx="12" fill="#E8F1FF" stroke="#9CBCEB" stroke-width="2"/>
<text x="200.0" y="186.8" text-anchor="middle" font-family='"Microsoft YaHei","Noto Sans CJK SC","SimHei",Arial,sans-serif' font-size="16" font-weight="700" fill="#263238"><tspan x="200.0" dy="0">摄像头画面</tspan></text>
<text x="200.0" y="219.9" text-anchor="middle" font-family='"Microsoft YaHei","Noto Sans CJK SC","SimHei",Arial,sans-serif' font-size="12" font-weight="400" fill="#52606D"><tspan x="200.0" dy="0">桌面前方视觉输入</tspan></text> <rect x="70" y="270" width="260" height="104" rx="12" fill="#E8F1FF" stroke="#9CBCEB" stroke-width="2"/>
<text x="200.0" y="311.8" text-anchor="middle" font-family='"Microsoft YaHei","Noto Sans CJK SC","SimHei",Arial,sans-serif' font-size="16" font-weight="700" fill="#263238"><tspan x="200.0" dy="0">用户手势</tspan></text>
<text x="200.0" y="344.9" text-anchor="middle" font-family='"Microsoft YaHei","Noto Sans CJK SC","SimHei",Arial,sans-serif' font-size="12" font-weight="400" fill="#52606D"><tspan x="200.0" dy="0">Start / Stop / Confirm / Rock</tspan></text> <rect x="70" y="395" width="260" height="104" rx="12" fill="#E8F1FF" stroke="#9CBCEB" stroke-width="2"/>
<text x="200.0" y="436.8" text-anchor="middle" font-family='"Microsoft YaHei","Noto Sans CJK SC","SimHei",Arial,sans-serif' font-size="16" font-weight="700" fill="#263238"><tspan x="200.0" dy="0">人体姿态</tspan></text>
<text x="200.0" y="469.9" text-anchor="middle" font-family='"Microsoft YaHei","Noto Sans CJK SC","SimHei",Arial,sans-serif' font-size="12" font-weight="400" fill="#52606D"><tspan x="200.0" dy="0">上半身与头肩状态</tspan></text> <rect x="70" y="520" width="260" height="104" rx="12" fill="#E8F1FF" stroke="#9CBCEB" stroke-width="2"/>
<text x="200.0" y="561.8" text-anchor="middle" font-family='"Microsoft YaHei","Noto Sans CJK SC","SimHei",Arial,sans-serif' font-size="16" font-weight="700" fill="#263238"><tspan x="200.0" dy="0">桌面杯/瓶</tspan></text>
<text x="200.0" y="594.9" text-anchor="middle" font-family='"Microsoft YaHei","Noto Sans CJK SC","SimHei",Arial,sans-serif' font-size="12" font-weight="400" fill="#52606D"><tspan x="200.0" dy="0">饮品容器位置</tspan></text> <rect x="430" y="145" width="260" height="104" rx="12" fill="#E7F7F2" stroke="#8BCDBB" stroke-width="2"/>
<text x="560.0" y="178.8" text-anchor="middle" font-family='"Microsoft YaHei","Noto Sans CJK SC","SimHei",Arial,sans-serif' font-size="16" font-weight="700" fill="#263238"><tspan x="560.0" dy="0">RV1126B 端侧 AI</tspan></text>
<text x="560.0" y="209.9" text-anchor="middle" font-family='"Microsoft YaHei","Noto Sans CJK SC","SimHei",Arial,sans-serif' font-size="12" font-weight="400" fill="#52606D"><tspan x="560.0" dy="0">本地感知</tspan><tspan x="560.0" dy="16">本地判断</tspan></text> <rect x="430" y="270" width="260" height="104" rx="12" fill="#E7F7F2" stroke="#8BCDBB" stroke-width="2"/>
<text x="560.0" y="311.8" text-anchor="middle" font-family='"Microsoft YaHei","Noto Sans CJK SC","SimHei",Arial,sans-serif' font-size="16" font-weight="700" fill="#263238"><tspan x="560.0" dy="0">图像预处理</tspan></text>
<text x="560.0" y="344.9" text-anchor="middle" font-family='"Microsoft YaHei","Noto Sans CJK SC","SimHei",Arial,sans-serif' font-size="12" font-weight="400" fill="#52606D"><tspan x="560.0" dy="0">RGA 尺寸变换与坐标映射</tspan></text> <rect x="430" y="395" width="260" height="104" rx="12" fill="#E7F7F2" stroke="#8BCDBB" stroke-width="2"/>
<text x="560.0" y="424.8" text-anchor="middle" font-family='"Microsoft YaHei","Noto Sans CJK SC","SimHei",Arial,sans-serif' font-size="16" font-weight="700" fill="#263238"><tspan x="560.0" dy="0">多模型协同</tspan></text>
<text x="560.0" y="451.9" text-anchor="middle" font-family='"Microsoft YaHei","Noto Sans CJK SC","SimHei",Arial,sans-serif' font-size="12" font-weight="400" fill="#52606D"><tspan x="560.0" dy="0">手势识别</tspan><tspan x="560.0" dy="16">姿态估计</tspan><tspan x="560.0" dy="16">饮品检测</tspan></text> <rect x="430" y="520" width="260" height="104" rx="12" fill="#E7F7F2" stroke="#8BCDBB" stroke-width="2"/>
<text x="560.0" y="553.8" text-anchor="middle" font-family='"Microsoft YaHei","Noto Sans CJK SC","SimHei",Arial,sans-serif' font-size="16" font-weight="700" fill="#263238"><tspan x="560.0" dy="0">状态机融合</tspan></text>
<text x="560.0" y="584.9" text-anchor="middle" font-family='"Microsoft YaHei","Noto Sans CJK SC","SimHei",Arial,sans-serif' font-size="12" font-weight="400" fill="#52606D"><tspan x="560.0" dy="0">防抖、冷却</tspan><tspan x="560.0" dy="16">提醒事件判断</tspan></text> <rect x="800" y="145" width="260" height="104" rx="12" fill="#FFF4D8" stroke="#D8BD6E" stroke-width="2"/>
<text x="930.0" y="186.8" text-anchor="middle" font-family='"Microsoft YaHei","Noto Sans CJK SC","SimHei",Arial,sans-serif' font-size="16" font-weight="700" fill="#263238"><tspan x="930.0" dy="0">手势启停</tspan></text>
<text x="930.0" y="219.9" text-anchor="middle" font-family='"Microsoft YaHei","Noto Sans CJK SC","SimHei",Arial,sans-serif' font-size="12" font-weight="400" fill="#52606D"><tspan x="930.0" dy="0">非接触运行控制</tspan></text> <rect x="800" y="270" width="260" height="104" rx="12" fill="#FFF4D8" stroke="#D8BD6E" stroke-width="2"/>
<text x="930.0" y="311.8" text-anchor="middle" font-family='"Microsoft YaHei","Noto Sans CJK SC","SimHei",Arial,sans-serif' font-size="16" font-weight="700" fill="#263238"><tspan x="930.0" dy="0">坐姿提醒</tspan></text>
<text x="930.0" y="344.9" text-anchor="middle" font-family='"Microsoft YaHei","Noto Sans CJK SC","SimHei",Arial,sans-serif' font-size="12" font-weight="400" fill="#52606D"><tspan x="930.0" dy="0">基于姿态状态判断</tspan></text> <rect x="800" y="395" width="260" height="104" rx="12" fill="#FFF4D8" stroke="#D8BD6E" stroke-width="2"/>
<text x="930.0" y="436.8" text-anchor="middle" font-family='"Microsoft YaHei","Noto Sans CJK SC","SimHei",Arial,sans-serif' font-size="16" font-weight="700" fill="#263238"><tspan x="930.0" dy="0">饮水判断</tspan></text>
<text x="930.0" y="469.9" text-anchor="middle" font-family='"Microsoft YaHei","Noto Sans CJK SC","SimHei",Arial,sans-serif' font-size="12" font-weight="400" fill="#52606D"><tspan x="930.0" dy="0">杯/瓶与头部距离</tspan></text> <rect x="800" y="520" width="260" height="104" rx="12" fill="#FFF4D8" stroke="#D8BD6E" stroke-width="2"/>
<text x="930.0" y="561.8" text-anchor="middle" font-family='"Microsoft YaHei","Noto Sans CJK SC","SimHei",Arial,sans-serif' font-size="16" font-weight="700" fill="#263238"><tspan x="930.0" dy="0">定时饮水提醒</tspan></text>
<text x="930.0" y="594.9" text-anchor="middle" font-family='"Microsoft YaHei","Noto Sans CJK SC","SimHei",Arial,sans-serif' font-size="12" font-weight="400" fill="#52606D"><tspan x="930.0" dy="0">默认 30 分钟，可配置</tspan></text> <rect x="1165" y="190" width="260" height="104" rx="12" fill="#F2ECFF" stroke="#B8A2E6" stroke-width="2"/>
<text x="1295.0" y="231.8" text-anchor="middle" font-family='"Microsoft YaHei","Noto Sans CJK SC","SimHei",Arial,sans-serif' font-size="16" font-weight="700" fill="#263238"><tspan x="1295.0" dy="0">ST7789 本地屏幕</tspan></text>
<text x="1295.0" y="264.9" text-anchor="middle" font-family='"Microsoft YaHei","Noto Sans CJK SC","SimHei",Arial,sans-serif' font-size="12" font-weight="400" fill="#52606D"><tspan x="1295.0" dy="0">LVGL 状态反馈</tspan></text> <rect x="1165" y="342" width="260" height="104" rx="12" fill="#F2ECFF" stroke="#B8A2E6" stroke-width="2"/>
<text x="1295.0" y="383.8" text-anchor="middle" font-family='"Microsoft YaHei","Noto Sans CJK SC","SimHei",Arial,sans-serif' font-size="16" font-weight="700" fill="#263238"><tspan x="1295.0" dy="0">HTTP-FLV / RTSP</tspan></text>
<text x="1295.0" y="416.9" text-anchor="middle" font-family='"Microsoft YaHei","Noto Sans CJK SC","SimHei",Arial,sans-serif' font-size="12" font-weight="400" fill="#52606D"><tspan x="1295.0" dy="0">上位机视频查看</tspan></text> <rect x="1165" y="494" width="260" height="104" rx="12" fill="#F2ECFF" stroke="#B8A2E6" stroke-width="2"/>
<text x="1295.0" y="535.8" text-anchor="middle" font-family='"Microsoft YaHei","Noto Sans CJK SC","SimHei",Arial,sans-serif' font-size="16" font-weight="700" fill="#263238"><tspan x="1295.0" dy="0">MQTT 状态同步</tspan></text>
<text x="1295.0" y="568.9" text-anchor="middle" font-family='"Microsoft YaHei","Noto Sans CJK SC","SimHei",Arial,sans-serif' font-size="12" font-weight="400" fill="#52606D"><tspan x="1295.0" dy="0">status / event / telemetry</tspan></text> <polyline points="330.0,197.0 418.0,197.0" fill="none" stroke="#334A5F" stroke-width="3" stroke-linecap="butt" stroke-linejoin="round"/><polygon points="430.0,197.0 418.0,202.4 418.0,191.6" fill="#334A5F"/> <polyline points="690.0,197.0 788.0,197.0" fill="none" stroke="#334A5F" stroke-width="3" stroke-linecap="butt" stroke-linejoin="round"/><polygon points="800.0,197.0 788.0,202.4 788.0,191.6" fill="#334A5F"/> <polyline points="330.0,322.0 418.0,322.0" fill="none" stroke="#334A5F" stroke-width="3" stroke-linecap="butt" stroke-linejoin="round"/><polygon points="430.0,322.0 418.0,327.4 418.0,316.6" fill="#334A5F"/> <polyline points="690.0,322.0 788.0,322.0" fill="none" stroke="#334A5F" stroke-width="3" stroke-linecap="butt" stroke-linejoin="round"/><polygon points="800.0,322.0 788.0,327.4 788.0,316.6" fill="#334A5F"/> <polyline points="330.0,447.0 418.0,447.0" fill="none" stroke="#334A5F" stroke-width="3" stroke-linecap="butt" stroke-linejoin="round"/><polygon points="430.0,447.0 418.0,452.4 418.0,441.6" fill="#334A5F"/> <polyline points="690.0,447.0 788.0,447.0" fill="none" stroke="#334A5F" stroke-width="3" stroke-linecap="butt" stroke-linejoin="round"/><polygon points="800.0,447.0 788.0,452.4 788.0,441.6" fill="#334A5F"/> <polyline points="330.0,572.0 418.0,572.0" fill="none" stroke="#334A5F" stroke-width="3" stroke-linecap="butt" stroke-linejoin="round"/><polygon points="430.0,572.0 418.0,577.4 418.0,566.6" fill="#334A5F"/> <polyline points="690.0,572.0 788.0,572.0" fill="none" stroke="#334A5F" stroke-width="3" stroke-linecap="butt" stroke-linejoin="round"/><polygon points="800.0,572.0 788.0,577.4 788.0,566.6" fill="#334A5F"/> <polyline points="1060.0,197.0 1110.0,197.0 1110.0,242.0 1153.0,242.0" fill="none" stroke="#334A5F" stroke-width="3" stroke-linecap="butt" stroke-linejoin="round"/><polygon points="1165.0,242.0 1153.0,247.4 1153.0,236.6" fill="#334A5F"/> <polyline points="1060.0,322.0 1110.0,322.0 1110.0,394.0 1153.0,394.0" fill="none" stroke="#334A5F" stroke-width="3" stroke-linecap="butt" stroke-linejoin="round"/><polygon points="1165.0,394.0 1153.0,399.4 1153.0,388.6" fill="#334A5F"/> <polyline points="1060.0,447.0 1110.0,447.0 1110.0,546.0 1153.0,546.0" fill="none" stroke="#334A5F" stroke-width="3" stroke-linecap="butt" stroke-linejoin="round"/><polygon points="1165.0,546.0 1153.0,551.4 1153.0,540.6" fill="#334A5F"/> <polyline points="1060.0,572.0 1110.0,572.0 1110.0,546.0 1153.0,546.0" fill="none" stroke="#334A5F" stroke-width="3" stroke-linecap="butt" stroke-linejoin="round"/><polygon points="1165.0,546.0 1153.0,551.4 1153.0,540.6" fill="#334A5F"/> <text x="750.0" y="753.6" text-anchor="middle" font-family='"Microsoft YaHei","Noto Sans CJK SC","SimHei",Arial,sans-serif' font-size="15" font-weight="400" fill="#52606D"><tspan x="750.0" dy="0">本图展示系统从视觉输入、RV1126B 端侧处理、功能判断到多端反馈的整体功能关系。</tspan></text>
</svg>

