<?xml version="1.0" encoding="UTF-8"?>
<svg xmlns="http://www.w3.org/2000/svg" width="2160" height="1000" viewBox="0 0 2160 1000">
<rect width="100%" height="100%" fill="#FFFFFF"/>
<text x="1080.0" y="55.0" text-anchor="middle" font-family="Microsoft YaHei, SimHei, Arial, sans-serif" font-size="28" font-weight="800" fill="#172033">图2-1 系统整体框图</text>
<rect x="310" y="100" width="1140" height="825" rx="22" ry="22" fill="#e8f5f1" stroke="#7cb6a6" stroke-width="2.4"/>
<text x="880.0" y="142.0" text-anchor="middle" font-family="Microsoft YaHei, SimHei, Arial, sans-serif" font-size="24" font-weight="800" fill="#172033">RV1126B 端侧平台</text>
<text x="810.0" y="350.0" text-anchor="middle" font-family="Microsoft YaHei, SimHei, Arial, sans-serif" font-size="16" font-weight="700" fill="#4b5563">RKNN / NPU 端侧推理</text>
<polyline points="260.0,232.5 390.0,232.5" fill="none" stroke="#43556f" stroke-width="3" stroke-linecap="round" stroke-linejoin="round"/>
<polygon points="390.0,232.5 378.0,237.9 378.0,227.1" fill="#43556f"/>
<polyline points="610.0,232.5 690.0,232.5" fill="none" stroke="#43556f" stroke-width="3" stroke-linecap="round" stroke-linejoin="round"/>
<polygon points="690.0,232.5 678.0,237.9 678.0,227.1" fill="#43556f"/>
<polyline points="810.0,280.0 810.0,330.0 505.0,330.0 505.0,385.0" fill="none" stroke="#43556f" stroke-width="3" stroke-linecap="round" stroke-linejoin="round"/>
<polygon points="505.0,385.0 499.6,373.0 510.4,373.0" fill="#43556f"/>
<polyline points="810.0,280.0 810.0,330.0 810.0,385.0" fill="none" stroke="#43556f" stroke-width="3" stroke-linecap="round" stroke-linejoin="round"/>
<polygon points="810.0,385.0 804.6,373.0 815.4,373.0" fill="#43556f"/>
<polyline points="810.0,280.0 810.0,330.0 1115.0,330.0 1115.0,385.0" fill="none" stroke="#43556f" stroke-width="3" stroke-linecap="round" stroke-linejoin="round"/>
<polygon points="1115.0,385.0 1109.6,373.0 1120.4,373.0" fill="#43556f"/>
<polyline points="505.0,495.0 505.0,585.0 650.0,585.0 650.0,660.0" fill="none" stroke="#43556f" stroke-width="3" stroke-linecap="round" stroke-linejoin="round"/>
<polygon points="650.0,660.0 644.6,648.0 655.4,648.0" fill="#43556f"/>
<polyline points="810.0,495.0 810.0,585.0 740.0,585.0 740.0,660.0" fill="none" stroke="#43556f" stroke-width="3" stroke-linecap="round" stroke-linejoin="round"/>
<polygon points="740.0,660.0 734.6,648.0 745.4,648.0" fill="#43556f"/>
<polyline points="1115.0,495.0 1115.0,585.0 830.0,585.0 830.0,660.0" fill="none" stroke="#43556f" stroke-width="3" stroke-linecap="round" stroke-linejoin="round"/>
<polygon points="830.0,660.0 824.6,648.0 835.4,648.0" fill="#43556f"/>
<polyline points="930.0,745.0 1050.0,745.0" fill="none" stroke="#43556f" stroke-width="3" stroke-linecap="round" stroke-linejoin="round"/>
<polygon points="1050.0,745.0 1038.0,750.4 1038.0,739.6" fill="#43556f"/>
<polyline points="1310.0,745.0 1485.0,745.0 1485.0,692.5 1570.0,692.5" fill="none" stroke="#43556f" stroke-width="3" stroke-linecap="round" stroke-linejoin="round"/>
<polygon points="1570.0,692.5 1558.0,697.9 1558.0,687.1" fill="#43556f"/>
<polyline points="930.0,232.5 1570.0,232.5" fill="none" stroke="#43556f" stroke-width="3" stroke-linecap="round" stroke-linejoin="round"/>
<polygon points="1570.0,232.5 1558.0,237.9 1558.0,227.1" fill="#43556f"/>
<polyline points="930.0,697.5 1000.0,697.5 1000.0,610.0 1480.0,610.0 1480.0,255.0 1570.0,255.0" fill="none" stroke="#43556f" stroke-width="3" stroke-linecap="round" stroke-linejoin="round" stroke-dasharray="8 7"/>
<polygon points="1570.0,255.0 1558.0,260.4 1558.0,249.6" fill="#43556f"/>
<polyline points="1692.5,275.0 1692.5,350.0" fill="none" stroke="#43556f" stroke-width="3" stroke-linecap="round" stroke-linejoin="round"/>
<polygon points="1692.5,350.0 1687.1,338.0 1697.9,338.0" fill="#43556f"/>
<polyline points="1692.5,435.0 1692.5,520.0" fill="none" stroke="#43556f" stroke-width="3" stroke-linecap="round" stroke-linejoin="round"/>
<polygon points="1692.5,520.0 1687.1,508.0 1697.9,508.0" fill="#43556f"/>
<polyline points="1815.0,567.5 1870.0,567.5 1870.0,700.0 1930.0,700.0" fill="none" stroke="#43556f" stroke-width="3" stroke-linecap="round" stroke-linejoin="round"/>
<polygon points="1930.0,700.0 1918.0,705.4 1918.0,694.6" fill="#43556f"/>
<polyline points="1310.0,780.0 1480.0,780.0 1480.0,857.5 1570.0,857.5" fill="none" stroke="#43556f" stroke-width="3" stroke-linecap="round" stroke-linejoin="round"/>
<polygon points="1570.0,857.5 1558.0,862.9 1558.0,852.1" fill="#43556f"/>
<polyline points="1815.0,857.5 1870.0,857.5 1870.0,765.0 1930.0,765.0" fill="none" stroke="#43556f" stroke-width="3" stroke-linecap="round" stroke-linejoin="round"/>
<polygon points="1930.0,765.0 1918.0,770.4 1918.0,759.6" fill="#43556f"/>
<rect x="60.0" y="185.0" width="200.0" height="95.0" rx="16" ry="16" fill="#dbeafe" stroke="#7aa7d9" stroke-width="2"/>
<text x="160.0" y="223.0" text-anchor="middle" font-family="Microsoft YaHei, SimHei, Arial, sans-serif" font-size="17" font-weight="700" fill="#172033">摄像头</text>
<text x="160.0" y="248.0" text-anchor="middle" font-family="Microsoft YaHei, SimHei, Arial, sans-serif" font-size="12" font-weight="400" fill="#4b5563">640×480</text>
<text x="160.0" y="264.0" text-anchor="middle" font-family="Microsoft YaHei, SimHei, Arial, sans-serif" font-size="12" font-weight="400" fill="#4b5563">NV12</text>
<rect x="390.0" y="185.0" width="220.0" height="95.0" rx="16" ry="16" fill="#f8fbff" stroke="#91a9c6" stroke-width="2"/>
<text x="500.0" y="231.0" text-anchor="middle" font-family="Microsoft YaHei, SimHei, Arial, sans-serif" font-size="17" font-weight="700" fill="#172033">图像采集</text>
<text x="500.0" y="256.0" text-anchor="middle" font-family="Microsoft YaHei, SimHei, Arial, sans-serif" font-size="12" font-weight="400" fill="#4b5563">V4L2 输入</text>
<rect x="690.0" y="185.0" width="240.0" height="95.0" rx="16" ry="16" fill="#f8fbff" stroke="#91a9c6" stroke-width="2"/>
<text x="810.0" y="223.0" text-anchor="middle" font-family="Microsoft YaHei, SimHei, Arial, sans-serif" font-size="17" font-weight="700" fill="#172033">图像预处理</text>
<text x="810.0" y="248.0" text-anchor="middle" font-family="Microsoft YaHei, SimHei, Arial, sans-serif" font-size="12" font-weight="400" fill="#4b5563">RGA 尺寸变换</text>
<text x="810.0" y="264.0" text-anchor="middle" font-family="Microsoft YaHei, SimHei, Arial, sans-serif" font-size="12" font-weight="400" fill="#4b5563">坐标映射</text>
<rect x="380.0" y="385.0" width="250.0" height="110.0" rx="16" ry="16" fill="#ebe9ff" stroke="#aaa3dd" stroke-width="2"/>
<text x="505.0" y="430.0" text-anchor="middle" font-family="Microsoft YaHei, SimHei, Arial, sans-serif" font-size="16" font-weight="700" fill="#172033">手势识别模型</text>
<text x="505.0" y="454.0" text-anchor="middle" font-family="Microsoft YaHei, SimHei, Arial, sans-serif" font-size="12" font-weight="400" fill="#4b5563">224×224</text>
<text x="505.0" y="470.0" text-anchor="middle" font-family="Microsoft YaHei, SimHei, Arial, sans-serif" font-size="12" font-weight="400" fill="#4b5563">Start / Stop / Confirm / Rock</text>
<rect x="685.0" y="385.0" width="250.0" height="110.0" rx="16" ry="16" fill="#ebe9ff" stroke="#aaa3dd" stroke-width="2"/>
<text x="810.0" y="430.0" text-anchor="middle" font-family="Microsoft YaHei, SimHei, Arial, sans-serif" font-size="16" font-weight="700" fill="#172033">姿态估计模型</text>
<text x="810.0" y="454.0" text-anchor="middle" font-family="Microsoft YaHei, SimHei, Arial, sans-serif" font-size="12" font-weight="400" fill="#4b5563">640×640</text>
<text x="810.0" y="470.0" text-anchor="middle" font-family="Microsoft YaHei, SimHei, Arial, sans-serif" font-size="12" font-weight="400" fill="#4b5563">人体框 + 17 关键点</text>
<rect x="990.0" y="385.0" width="250.0" height="110.0" rx="16" ry="16" fill="#ebe9ff" stroke="#aaa3dd" stroke-width="2"/>
<text x="1115.0" y="430.0" text-anchor="middle" font-family="Microsoft YaHei, SimHei, Arial, sans-serif" font-size="16" font-weight="700" fill="#172033">饮品检测模型</text>
<text x="1115.0" y="454.0" text-anchor="middle" font-family="Microsoft YaHei, SimHei, Arial, sans-serif" font-size="12" font-weight="400" fill="#4b5563">640×640</text>
<text x="1115.0" y="470.0" text-anchor="middle" font-family="Microsoft YaHei, SimHei, Arial, sans-serif" font-size="12" font-weight="400" fill="#4b5563">杯/瓶候选框</text>
<rect x="550.0" y="660.0" width="380.0" height="165.0" rx="16" ry="16" fill="#fff4d6" stroke="#d8b86d" stroke-width="2"/>
<text x="740.0" y="717.5" text-anchor="middle" font-family="Microsoft YaHei, SimHei, Arial, sans-serif" font-size="18" font-weight="700" fill="#172033">状态融合与事件判断</text>
<text x="740.0" y="743.5" text-anchor="middle" font-family="Microsoft YaHei, SimHei, Arial, sans-serif" font-size="12" font-weight="400" fill="#4b5563">手势状态机</text>
<text x="740.0" y="759.5" text-anchor="middle" font-family="Microsoft YaHei, SimHei, Arial, sans-serif" font-size="12" font-weight="400" fill="#4b5563">坐姿判断</text>
<text x="740.0" y="775.5" text-anchor="middle" font-family="Microsoft YaHei, SimHei, Arial, sans-serif" font-size="12" font-weight="400" fill="#4b5563">饮水判断</text>
<text x="740.0" y="791.5" text-anchor="middle" font-family="Microsoft YaHei, SimHei, Arial, sans-serif" font-size="12" font-weight="400" fill="#4b5563">定时提醒</text>
<rect x="1050.0" y="690.0" width="260.0" height="110.0" rx="16" ry="16" fill="#fff4d6" stroke="#d8b86d" stroke-width="2"/>
<text x="1180.0" y="735.5" text-anchor="middle" font-family="Microsoft YaHei, SimHei, Arial, sans-serif" font-size="17" font-weight="700" fill="#172033">系统状态</text>
<text x="1180.0" y="760.5" text-anchor="middle" font-family="Microsoft YaHei, SimHei, Arial, sans-serif" font-size="12" font-weight="400" fill="#4b5563">Idle / Running</text>
<text x="1180.0" y="776.5" text-anchor="middle" font-family="Microsoft YaHei, SimHei, Arial, sans-serif" font-size="12" font-weight="400" fill="#4b5563">AppState / VisionResult</text>
<rect x="1570.0" y="650.0" width="245.0" height="85.0" rx="16" ry="16" fill="#f0e7ff" stroke="#b9a0de" stroke-width="2"/>
<text x="1692.5" y="691.0" text-anchor="middle" font-family="Microsoft YaHei, SimHei, Arial, sans-serif" font-size="17" font-weight="700" fill="#172033">ST7789/LVGL</text>
<text x="1692.5" y="716.0" text-anchor="middle" font-family="Microsoft YaHei, SimHei, Arial, sans-serif" font-size="12" font-weight="400" fill="#4b5563">本地显示</text>
<rect x="1570.0" y="190.0" width="245.0" height="85.0" rx="16" ry="16" fill="#f0e7ff" stroke="#b9a0de" stroke-width="2"/>
<text x="1692.5" y="231.0" text-anchor="middle" font-family="Microsoft YaHei, SimHei, Arial, sans-serif" font-size="17" font-weight="700" fill="#172033">MPP H.264 编码</text>
<text x="1692.5" y="256.0" text-anchor="middle" font-family="Microsoft YaHei, SimHei, Arial, sans-serif" font-size="12" font-weight="400" fill="#4b5563">叠加推理结果</text>
<rect x="1570.0" y="350.0" width="245.0" height="85.0" rx="16" ry="16" fill="#f0e7ff" stroke="#b9a0de" stroke-width="2"/>
<text x="1692.5" y="391.0" text-anchor="middle" font-family="Microsoft YaHei, SimHei, Arial, sans-serif" font-size="17" font-weight="700" fill="#172033">HTTP-FLV</text>
<text x="1692.5" y="416.0" text-anchor="middle" font-family="Microsoft YaHei, SimHei, Arial, sans-serif" font-size="12" font-weight="400" fill="#4b5563">8080/live.flv</text>
<rect x="1570.0" y="520.0" width="245.0" height="95.0" rx="16" ry="16" fill="#f0e7ff" stroke="#b9a0de" stroke-width="2"/>
<text x="1692.5" y="558.0" text-anchor="middle" font-family="Microsoft YaHei, SimHei, Arial, sans-serif" font-size="17" font-weight="700" fill="#172033">RTSP relay</text>
<text x="1692.5" y="583.0" text-anchor="middle" font-family="Microsoft YaHei, SimHei, Arial, sans-serif" font-size="12" font-weight="400" fill="#4b5563">8554/live</text>
<text x="1692.5" y="599.0" text-anchor="middle" font-family="Microsoft YaHei, SimHei, Arial, sans-serif" font-size="12" font-weight="400" fill="#4b5563">独立转换工具</text>
<rect x="1570.0" y="815.0" width="245.0" height="85.0" rx="16" ry="16" fill="#f0e7ff" stroke="#b9a0de" stroke-width="2"/>
<text x="1692.5" y="856.0" text-anchor="middle" font-family="Microsoft YaHei, SimHei, Arial, sans-serif" font-size="17" font-weight="700" fill="#172033">MQTT</text>
<text x="1692.5" y="881.0" text-anchor="middle" font-family="Microsoft YaHei, SimHei, Arial, sans-serif" font-size="12" font-weight="400" fill="#4b5563">status / event / telemetry</text>
<rect x="1930.0" y="535.0" width="170.0" height="330.0" rx="16" ry="16" fill="#e8eef6" stroke="#91a1b5" stroke-width="2"/>
<text x="2015.0" y="682.5" text-anchor="middle" font-family="Microsoft YaHei, SimHei, Arial, sans-serif" font-size="17" font-weight="700" fill="#172033">上位机</text>
<text x="2015.0" y="707.5" text-anchor="middle" font-family="Microsoft YaHei, SimHei, Arial, sans-serif" font-size="12" font-weight="400" fill="#4b5563">VLC 播放</text>
<text x="2015.0" y="723.5" text-anchor="middle" font-family="Microsoft YaHei, SimHei, Arial, sans-serif" font-size="12" font-weight="400" fill="#4b5563">MQTT 订阅</text>
<text x="2015.0" y="739.5" text-anchor="middle" font-family="Microsoft YaHei, SimHei, Arial, sans-serif" font-size="12" font-weight="400" fill="#4b5563">调试与截图</text>
</svg>

