<?xml version="1.0" encoding="UTF-8"?>
<svg xmlns="http://www.w3.org/2000/svg" width="2050" height="1040" viewBox="0 0 2050 1040">
<rect width="100%" height="100%" fill="#FFFFFF"/>
<text x="1025.0" y="58.0" text-anchor="middle" font-family="Microsoft YaHei, SimHei, Arial, sans-serif" font-size="28" font-weight="800" fill="#172033">图2-3 软件架构图</text>
<rect x="55.0" y="100.0" width="470.0" height="700.0" rx="22" ry="22" fill="#ffffff" stroke="#d8e0ec" stroke-width="2"/>
<text x="290.0" y="138.0" text-anchor="middle" font-family="Microsoft YaHei, SimHei, Arial, sans-serif" font-size="23" font-weight="800" fill="#172033">采集与预处理</text>
<rect x="585.0" y="100.0" width="725.0" height="700.0" rx="22" ry="22" fill="#ffffff" stroke="#d8e0ec" stroke-width="2"/>
<text x="947.5" y="138.0" text-anchor="middle" font-family="Microsoft YaHei, SimHei, Arial, sans-serif" font-size="23" font-weight="800" fill="#172033">AI 推理与业务判断</text>
<rect x="1285.0" y="100.0" width="720.0" height="780.0" rx="22" ry="22" fill="#ffffff" stroke="#d8e0ec" stroke-width="2"/>
<text x="1645.0" y="138.0" text-anchor="middle" font-family="Microsoft YaHei, SimHei, Arial, sans-serif" font-size="23" font-weight="800" fill="#172033">输出反馈与上位机查看</text>
<polyline points="285.0,246.0 285.0,330.0" fill="none" stroke="#43556f" stroke-width="3" stroke-linecap="round" stroke-linejoin="round"/>
<polygon points="285.0,330.0 279.6,318.0 290.4,318.0" fill="#43556f"/>
<polyline points="285.0,426.0 285.0,515.0" fill="none" stroke="#43556f" stroke-width="3" stroke-linecap="round" stroke-linejoin="round"/>
<polygon points="285.0,515.0 279.6,503.0 290.4,503.0" fill="#43556f"/>
<polyline points="435.0,569.0 550.0,569.0 550.0,218.0 775.0,218.0" fill="none" stroke="#43556f" stroke-width="3" stroke-linecap="round" stroke-linejoin="round"/>
<polygon points="775.0,218.0 763.0,223.4 763.0,212.6" fill="#43556f"/>
<polyline points="940.0,266.0 940.0,315.0 715.0,315.0 715.0,370.0" fill="none" stroke="#43556f" stroke-width="3" stroke-linecap="round" stroke-linejoin="round"/>
<polygon points="715.0,370.0 709.6,358.0 720.4,358.0" fill="#43556f"/>
<polyline points="940.0,266.0 940.0,370.0" fill="none" stroke="#43556f" stroke-width="3" stroke-linecap="round" stroke-linejoin="round"/>
<polygon points="940.0,370.0 934.6,358.0 945.4,358.0" fill="#43556f"/>
<polyline points="940.0,266.0 940.0,315.0 1165.0,315.0 1165.0,370.0" fill="none" stroke="#43556f" stroke-width="3" stroke-linecap="round" stroke-linejoin="round"/>
<polygon points="1165.0,370.0 1159.6,358.0 1170.4,358.0" fill="#43556f"/>
<polyline points="715.0,486.0 715.0,540.0 875.0,540.0 875.0,590.0" fill="none" stroke="#43556f" stroke-width="3" stroke-linecap="round" stroke-linejoin="round"/>
<polygon points="875.0,590.0 869.6,578.0 880.4,578.0" fill="#43556f"/>
<polyline points="940.0,486.0 940.0,530.0 1000.0,530.0 960.0,530.0 960.0,590.0" fill="none" stroke="#43556f" stroke-width="3" stroke-linecap="round" stroke-linejoin="round"/>
<polygon points="960.0,590.0 954.6,578.0 965.4,578.0" fill="#43556f"/>
<polyline points="1165.0,486.0 1165.0,540.0 1045.0,540.0 1045.0,590.0" fill="none" stroke="#43556f" stroke-width="3" stroke-linecap="round" stroke-linejoin="round"/>
<polygon points="1045.0,590.0 1039.6,578.0 1050.4,578.0" fill="#43556f"/>
<polyline points="1130.0,665.0 1300.0,665.0 1300.0,198.0 1390.0,198.0" fill="none" stroke="#43556f" stroke-width="3" stroke-linecap="round" stroke-linejoin="round"/>
<polygon points="1390.0,198.0 1378.0,203.4 1378.0,192.6" fill="#43556f"/>
<polyline points="1130.0,665.0 1300.0,665.0 1300.0,353.0 1390.0,353.0" fill="none" stroke="#43556f" stroke-width="3" stroke-linecap="round" stroke-linejoin="round"/>
<polygon points="1390.0,353.0 1378.0,358.4 1378.0,347.6" fill="#43556f"/>
<polyline points="1540.0,401.0 1540.0,480.0" fill="none" stroke="#43556f" stroke-width="3" stroke-linecap="round" stroke-linejoin="round"/>
<polygon points="1540.0,480.0 1534.6,468.0 1545.4,468.0" fill="#43556f"/>
<polyline points="1690.0,528.0 1725.0,528.0 1725.0,600.0 1770.0,600.0" fill="none" stroke="#43556f" stroke-width="3" stroke-linecap="round" stroke-linejoin="round"/>
<polygon points="1770.0,600.0 1758.0,605.4 1758.0,594.6" fill="#43556f"/>
<polyline points="1130.0,665.0 1300.0,665.0 1300.0,725.0 1335.0,725.0 1335.0,683.0 1390.0,683.0" fill="none" stroke="#43556f" stroke-width="3" stroke-linecap="round" stroke-linejoin="round"/>
<polygon points="1390.0,683.0 1378.0,688.4 1378.0,677.6" fill="#43556f"/>
<polyline points="1690.0,683.0 1770.0,683.0" fill="none" stroke="#43556f" stroke-width="3" stroke-linecap="round" stroke-linejoin="round"/>
<polygon points="1770.0,683.0 1758.0,688.4 1758.0,677.6" fill="#43556f"/>
<rect x="135.0" y="150.0" width="300.0" height="96.0" rx="16" ry="16" fill="#fff4d6" stroke="#d8b86d" stroke-width="2"/>
<text x="285.0" y="180.5" text-anchor="middle" font-family="Microsoft YaHei, SimHei, Arial, sans-serif" font-size="17" font-weight="700" fill="#172033">主控调度</text>
<text x="285.0" y="205.5" text-anchor="middle" font-family="Microsoft YaHei, SimHei, Arial, sans-serif" font-size="12" font-weight="400" fill="#4b5563">配置加载</text>
<text x="285.0" y="221.5" text-anchor="middle" font-family="Microsoft YaHei, SimHei, Arial, sans-serif" font-size="12" font-weight="400" fill="#4b5563">Idle / Running 状态管理</text>
<text x="285.0" y="237.5" text-anchor="middle" font-family="Microsoft YaHei, SimHei, Arial, sans-serif" font-size="12" font-weight="400" fill="#4b5563">模块协同</text>
<rect x="135.0" y="330.0" width="300.0" height="96.0" rx="16" ry="16" fill="#dbeafe" stroke="#7aa7d9" stroke-width="2"/>
<text x="285.0" y="368.5" text-anchor="middle" font-family="Microsoft YaHei, SimHei, Arial, sans-serif" font-size="17" font-weight="700" fill="#172033">摄像头采集</text>
<text x="285.0" y="393.5" text-anchor="middle" font-family="Microsoft YaHei, SimHei, Arial, sans-serif" font-size="12" font-weight="400" fill="#4b5563">V4L2</text>
<text x="285.0" y="409.5" text-anchor="middle" font-family="Microsoft YaHei, SimHei, Arial, sans-serif" font-size="12" font-weight="400" fill="#4b5563">640×480 NV12</text>
<rect x="135.0" y="515.0" width="300.0" height="108.0" rx="16" ry="16" fill="#f8fbff" stroke="#91a9c6" stroke-width="2"/>
<text x="285.0" y="559.5" text-anchor="middle" font-family="Microsoft YaHei, SimHei, Arial, sans-serif" font-size="17" font-weight="700" fill="#172033">图像预处理</text>
<text x="285.0" y="584.5" text-anchor="middle" font-family="Microsoft YaHei, SimHei, Arial, sans-serif" font-size="12" font-weight="400" fill="#4b5563">RGA 尺寸变换</text>
<text x="285.0" y="600.5" text-anchor="middle" font-family="Microsoft YaHei, SimHei, Arial, sans-serif" font-size="12" font-weight="400" fill="#4b5563">坐标映射</text>
<rect x="775.0" y="170.0" width="330.0" height="96.0" rx="16" ry="16" fill="#ebe9ff" stroke="#aaa3dd" stroke-width="2"/>
<text x="940.0" y="227.0" text-anchor="middle" font-family="Microsoft YaHei, SimHei, Arial, sans-serif" font-size="18" font-weight="700" fill="#172033">RKNN/NPU 端侧推理</text>
<rect x="610.0" y="370.0" width="210.0" height="116.0" rx="16" ry="16" fill="#ebe9ff" stroke="#aaa3dd" stroke-width="2"/>
<text x="715.0" y="418.5" text-anchor="middle" font-family="Microsoft YaHei, SimHei, Arial, sans-serif" font-size="17" font-weight="700" fill="#172033">手势识别</text>
<text x="715.0" y="443.5" text-anchor="middle" font-family="Microsoft YaHei, SimHei, Arial, sans-serif" font-size="12" font-weight="400" fill="#4b5563">Start / Stop</text>
<text x="715.0" y="459.5" text-anchor="middle" font-family="Microsoft YaHei, SimHei, Arial, sans-serif" font-size="12" font-weight="400" fill="#4b5563">Confirm / Rock</text>
<rect x="835.0" y="370.0" width="210.0" height="116.0" rx="16" ry="16" fill="#ebe9ff" stroke="#aaa3dd" stroke-width="2"/>
<text x="940.0" y="418.5" text-anchor="middle" font-family="Microsoft YaHei, SimHei, Arial, sans-serif" font-size="17" font-weight="700" fill="#172033">姿态估计</text>
<text x="940.0" y="443.5" text-anchor="middle" font-family="Microsoft YaHei, SimHei, Arial, sans-serif" font-size="12" font-weight="400" fill="#4b5563">人体框</text>
<text x="940.0" y="459.5" text-anchor="middle" font-family="Microsoft YaHei, SimHei, Arial, sans-serif" font-size="12" font-weight="400" fill="#4b5563">17 个关键点</text>
<rect x="1060.0" y="370.0" width="210.0" height="116.0" rx="16" ry="16" fill="#ebe9ff" stroke="#aaa3dd" stroke-width="2"/>
<text x="1165.0" y="426.5" text-anchor="middle" font-family="Microsoft YaHei, SimHei, Arial, sans-serif" font-size="17" font-weight="700" fill="#172033">饮品检测</text>
<text x="1165.0" y="451.5" text-anchor="middle" font-family="Microsoft YaHei, SimHei, Arial, sans-serif" font-size="12" font-weight="400" fill="#4b5563">杯/瓶候选框</text>
<rect x="790.0" y="590.0" width="340.0" height="150.0" rx="16" ry="16" fill="#fff4d6" stroke="#d8b86d" stroke-width="2"/>
<text x="960.0" y="640.0" text-anchor="middle" font-family="Microsoft YaHei, SimHei, Arial, sans-serif" font-size="18" font-weight="700" fill="#172033">业务状态融合</text>
<text x="960.0" y="666.0" text-anchor="middle" font-family="Microsoft YaHei, SimHei, Arial, sans-serif" font-size="12" font-weight="400" fill="#4b5563">手势状态机</text>
<text x="960.0" y="682.0" text-anchor="middle" font-family="Microsoft YaHei, SimHei, Arial, sans-serif" font-size="12" font-weight="400" fill="#4b5563">坐姿判断</text>
<text x="960.0" y="698.0" text-anchor="middle" font-family="Microsoft YaHei, SimHei, Arial, sans-serif" font-size="12" font-weight="400" fill="#4b5563">饮水判断</text>
<text x="960.0" y="714.0" text-anchor="middle" font-family="Microsoft YaHei, SimHei, Arial, sans-serif" font-size="12" font-weight="400" fill="#4b5563">定时提醒</text>
<rect x="1390.0" y="150.0" width="300.0" height="96.0" rx="16" ry="16" fill="#f0e7ff" stroke="#b9a0de" stroke-width="2"/>
<text x="1540.0" y="188.5" text-anchor="middle" font-family="Microsoft YaHei, SimHei, Arial, sans-serif" font-size="17" font-weight="700" fill="#172033">ST7789/LVGL 本地显示</text>
<text x="1540.0" y="213.5" text-anchor="middle" font-family="Microsoft YaHei, SimHei, Arial, sans-serif" font-size="12" font-weight="400" fill="#4b5563">状态反馈</text>
<text x="1540.0" y="229.5" text-anchor="middle" font-family="Microsoft YaHei, SimHei, Arial, sans-serif" font-size="12" font-weight="400" fill="#4b5563">提醒界面</text>
<rect x="1390.0" y="305.0" width="300.0" height="96.0" rx="16" ry="16" fill="#f0e7ff" stroke="#b9a0de" stroke-width="2"/>
<text x="1540.0" y="343.5" text-anchor="middle" font-family="Microsoft YaHei, SimHei, Arial, sans-serif" font-size="17" font-weight="700" fill="#172033">HTTP-FLV 视频输出</text>
<text x="1540.0" y="368.5" text-anchor="middle" font-family="Microsoft YaHei, SimHei, Arial, sans-serif" font-size="12" font-weight="400" fill="#4b5563">MPP H.264 编码</text>
<text x="1540.0" y="384.5" text-anchor="middle" font-family="Microsoft YaHei, SimHei, Arial, sans-serif" font-size="12" font-weight="400" fill="#4b5563">8080/live.flv</text>
<rect x="1390.0" y="480.0" width="300.0" height="96.0" rx="16" ry="16" fill="#f0e7ff" stroke="#b9a0de" stroke-width="2"/>
<text x="1540.0" y="518.5" text-anchor="middle" font-family="Microsoft YaHei, SimHei, Arial, sans-serif" font-size="17" font-weight="700" fill="#172033">RTSP relay 视频查看</text>
<text x="1540.0" y="543.5" text-anchor="middle" font-family="Microsoft YaHei, SimHei, Arial, sans-serif" font-size="12" font-weight="400" fill="#4b5563">独立转换工具</text>
<text x="1540.0" y="559.5" text-anchor="middle" font-family="Microsoft YaHei, SimHei, Arial, sans-serif" font-size="12" font-weight="400" fill="#4b5563">VLC 播放</text>
<rect x="1390.0" y="635.0" width="300.0" height="96.0" rx="16" ry="16" fill="#f0e7ff" stroke="#b9a0de" stroke-width="2"/>
<text x="1540.0" y="665.5" text-anchor="middle" font-family="Microsoft YaHei, SimHei, Arial, sans-serif" font-size="17" font-weight="700" fill="#172033">MQTT 状态同步</text>
<text x="1540.0" y="690.5" text-anchor="middle" font-family="Microsoft YaHei, SimHei, Arial, sans-serif" font-size="12" font-weight="400" fill="#4b5563">status</text>
<text x="1540.0" y="706.5" text-anchor="middle" font-family="Microsoft YaHei, SimHei, Arial, sans-serif" font-size="12" font-weight="400" fill="#4b5563">event</text>
<text x="1540.0" y="722.5" text-anchor="middle" font-family="Microsoft YaHei, SimHei, Arial, sans-serif" font-size="12" font-weight="400" fill="#4b5563">telemetry</text>
<rect x="1770.0" y="578.0" width="225.0" height="210.0" rx="16" ry="16" fill="#e8eef6" stroke="#91a1b5" stroke-width="2"/>
<text x="1882.5" y="665.5" text-anchor="middle" font-family="Microsoft YaHei, SimHei, Arial, sans-serif" font-size="17" font-weight="700" fill="#172033">上位机</text>
<text x="1882.5" y="690.5" text-anchor="middle" font-family="Microsoft YaHei, SimHei, Arial, sans-serif" font-size="12" font-weight="400" fill="#4b5563">VLC 播放</text>
<text x="1882.5" y="706.5" text-anchor="middle" font-family="Microsoft YaHei, SimHei, Arial, sans-serif" font-size="12" font-weight="400" fill="#4b5563">MQTT 订阅</text>
<text x="1882.5" y="722.5" text-anchor="middle" font-family="Microsoft YaHei, SimHei, Arial, sans-serif" font-size="12" font-weight="400" fill="#4b5563">日志与截图</text>
</svg>
