<?xml version="1.0" encoding="UTF-8"?>
<svg xmlns="http://www.w3.org/2000/svg" width="1960" height="1260" viewBox="0 0 1960 1260">
<rect width="100%" height="100%" fill="#FFFFFF"/>
<text x="980.0" y="58.0" text-anchor="middle" font-family="Microsoft YaHei, SimHei, Arial, sans-serif" font-size="28" font-weight="800" fill="#172033">图2-6 饮水提醒判断流程图</text>
<text x="220.0" y="118.0" text-anchor="middle" font-family="Microsoft YaHei, SimHei, Arial, sans-serif" font-size="20" font-weight="700" fill="#4b5563">输入</text>
<text x="570.0" y="118.0" text-anchor="middle" font-family="Microsoft YaHei, SimHei, Arial, sans-serif" font-size="20" font-weight="700" fill="#4b5563">视觉判断</text>
<text x="960.0" y="438.0" text-anchor="middle" font-family="Microsoft YaHei, SimHei, Arial, sans-serif" font-size="20" font-weight="700" fill="#4b5563">定时提醒</text>
<text x="1340.0" y="638.0" text-anchor="middle" font-family="Microsoft YaHei, SimHei, Arial, sans-serif" font-size="20" font-weight="700" fill="#4b5563">状态融合</text>
<text x="1675.0" y="248.0" text-anchor="middle" font-family="Microsoft YaHei, SimHei, Arial, sans-serif" font-size="20" font-weight="700" fill="#4b5563">状态输出</text>
<polyline points="350.0,194.0 430.0,194.0" fill="none" stroke="#43556f" stroke-width="3" stroke-linecap="round" stroke-linejoin="round"/>
<polygon points="430.0,194.0 418.0,199.4 418.0,188.6" fill="#43556f"/>
<polyline points="350.0,344.0 430.0,344.0" fill="none" stroke="#43556f" stroke-width="3" stroke-linecap="round" stroke-linejoin="round"/>
<polygon points="430.0,344.0 418.0,349.4 418.0,338.6" fill="#43556f"/>
<polyline points="710.0,194.0 790.0,194.0 790.0,519.0 710.0,519.0" fill="none" stroke="#43556f" stroke-width="3" stroke-linecap="round" stroke-linejoin="round"/>
<polygon points="710.0,519.0 722.0,513.6 722.0,524.4" fill="#43556f"/>
<polyline points="570.0,383.0 570.0,480.0" fill="none" stroke="#43556f" stroke-width="3" stroke-linecap="round" stroke-linejoin="round"/>
<polygon points="570.0,480.0 564.6,468.0 575.4,468.0" fill="#43556f"/>
<polyline points="570.0,558.0 570.0,640.0" fill="none" stroke="#43556f" stroke-width="3" stroke-linecap="round" stroke-linejoin="round"/>
<polygon points="570.0,640.0 564.6,628.0 575.4,628.0" fill="#43556f"/>
<polyline points="570.0,718.0 570.0,800.0" fill="none" stroke="#43556f" stroke-width="3" stroke-linecap="round" stroke-linejoin="round"/>
<polygon points="570.0,800.0 564.6,788.0 575.4,788.0" fill="#43556f"/>
<polyline points="570.0,878.0 570.0,960.0" fill="none" stroke="#43556f" stroke-width="3" stroke-linecap="round" stroke-linejoin="round"/>
<polygon points="570.0,960.0 564.6,948.0 575.4,948.0" fill="#43556f"/>
<polyline points="710.0,999.0 820.0,999.0" fill="none" stroke="#43556f" stroke-width="3" stroke-linecap="round" stroke-linejoin="round"/>
<polygon points="820.0,999.0 808.0,1004.4 808.0,993.6" fill="#43556f"/>
<polyline points="350.0,1134.0 760.0,1134.0 760.0,839.0 820.0,839.0" fill="none" stroke="#43556f" stroke-width="3" stroke-linecap="round" stroke-linejoin="round"/>
<polygon points="820.0,839.0 808.0,844.4 808.0,833.6" fill="#43556f"/>
<polyline points="960.0,800.0 960.0,718.0" fill="none" stroke="#43556f" stroke-width="3" stroke-linecap="round" stroke-linejoin="round"/>
<polygon points="960.0,718.0 965.4,730.0 954.6,730.0" fill="#43556f"/>
<polyline points="960.0,640.0 960.0,558.0" fill="none" stroke="#43556f" stroke-width="3" stroke-linecap="round" stroke-linejoin="round"/>
<polygon points="960.0,558.0 965.4,570.0 954.6,570.0" fill="#43556f"/>
<polyline points="1100.0,519.0 1140.0,519.0 1140.0,714.0 1190.0,714.0" fill="none" stroke="#43556f" stroke-width="3" stroke-linecap="round" stroke-linejoin="round"/>
<polygon points="1190.0,714.0 1178.0,719.4 1178.0,708.6" fill="#43556f"/>
<polyline points="1100.0,999.0 1140.0,999.0 1140.0,734.0 1190.0,734.0" fill="none" stroke="#43556f" stroke-width="3" stroke-linecap="round" stroke-linejoin="round"/>
<polygon points="1190.0,734.0 1178.0,739.4 1178.0,728.6" fill="#43556f"/>
<polyline points="1490.0,700.0 1535.0,700.0 1535.0,329.0 1580.0,329.0" fill="none" stroke="#43556f" stroke-width="3" stroke-linecap="round" stroke-linejoin="round"/>
<polygon points="1580.0,329.0 1568.0,334.4 1568.0,323.6" fill="#43556f"/>
<polyline points="1490.0,724.0 1535.0,724.0 1535.0,509.0 1580.0,509.0" fill="none" stroke="#43556f" stroke-width="3" stroke-linecap="round" stroke-linejoin="round"/>
<polygon points="1580.0,509.0 1568.0,514.4 1568.0,503.6" fill="#43556f"/>
<polyline points="1490.0,748.0 1535.0,748.0 1535.0,829.0 1580.0,829.0" fill="none" stroke="#43556f" stroke-width="3" stroke-linecap="round" stroke-linejoin="round"/>
<polygon points="1580.0,829.0 1568.0,834.4 1568.0,823.6" fill="#43556f"/>
<polyline points="1715.0,548.0 1715.0,625.0" fill="none" stroke="#43556f" stroke-width="3" stroke-linecap="round" stroke-linejoin="round"/>
<polygon points="1715.0,625.0 1709.6,613.0 1720.4,613.0" fill="#43556f"/>
<polyline points="1715.0,868.0 1715.0,950.0" fill="none" stroke="#43556f" stroke-width="3" stroke-linecap="round" stroke-linejoin="round"/>
<polygon points="1715.0,950.0 1709.6,938.0 1720.4,938.0" fill="#43556f"/>
<polyline points="1490.0,939.0 1535.0,939.0 1535.0,989.0 1580.0,989.0" fill="none" stroke="#43556f" stroke-width="3" stroke-linecap="round" stroke-linejoin="round"/>
<polygon points="1580.0,989.0 1568.0,994.4 1568.0,983.6" fill="#43556f"/>
<polyline points="1850.0,664.0 1905.0,664.0 1905.0,1159.0 1850.0,1159.0" fill="none" stroke="#43556f" stroke-width="3" stroke-linecap="round" stroke-linejoin="round"/>
<polygon points="1850.0,1159.0 1862.0,1153.6 1862.0,1164.4" fill="#43556f"/>
<polyline points="1715.0,1028.0 1715.0,1120.0" fill="none" stroke="#43556f" stroke-width="3" stroke-linecap="round" stroke-linejoin="round"/>
<polygon points="1715.0,1120.0 1709.6,1108.0 1720.4,1108.0" fill="#43556f"/>
<polyline points="1850.0,329.0 1905.0,329.0 1905.0,1159.0 1850.0,1159.0" fill="none" stroke="#43556f" stroke-width="3" stroke-linecap="round" stroke-linejoin="round"/>
<polygon points="1850.0,1159.0 1862.0,1153.6 1862.0,1164.4" fill="#43556f"/>
<rect x="90.0" y="150.0" width="260.0" height="88.0" rx="16" ry="16" fill="#dbeafe" stroke="#7aa7d9" stroke-width="2"/>
<text x="220.0" y="184.5" text-anchor="middle" font-family="Microsoft YaHei, SimHei, Arial, sans-serif" font-size="17" font-weight="700" fill="#172033">姿态估计结果</text>
<text x="220.0" y="209.5" text-anchor="middle" font-family="Microsoft YaHei, SimHei, Arial, sans-serif" font-size="12" font-weight="400" fill="#4b5563">人体框</text>
<text x="220.0" y="225.5" text-anchor="middle" font-family="Microsoft YaHei, SimHei, Arial, sans-serif" font-size="12" font-weight="400" fill="#4b5563">头部关键点</text>
<rect x="90.0" y="300.0" width="260.0" height="88.0" rx="16" ry="16" fill="#dbeafe" stroke="#7aa7d9" stroke-width="2"/>
<text x="220.0" y="342.5" text-anchor="middle" font-family="Microsoft YaHei, SimHei, Arial, sans-serif" font-size="17" font-weight="700" fill="#172033">饮品检测结果</text>
<text x="220.0" y="367.5" text-anchor="middle" font-family="Microsoft YaHei, SimHei, Arial, sans-serif" font-size="12" font-weight="400" fill="#4b5563">杯/瓶候选框</text>
<rect x="90.0" y="1095.0" width="260.0" height="78.0" rx="16" ry="16" fill="#dbeafe" stroke="#7aa7d9" stroke-width="2"/>
<text x="220.0" y="1142.5" text-anchor="middle" font-family="Microsoft YaHei, SimHei, Arial, sans-serif" font-size="17" font-weight="700" fill="#172033">饮水定时器</text>
<rect x="430.0" y="155.0" width="280.0" height="78.0" rx="16" ry="16" fill="#f8fbff" stroke="#91a9c6" stroke-width="2"/>
<text x="570.0" y="202.5" text-anchor="middle" font-family="Microsoft YaHei, SimHei, Arial, sans-serif" font-size="17" font-weight="700" fill="#172033">选择头部点</text>
<rect x="430.0" y="305.0" width="280.0" height="78.0" rx="16" ry="16" fill="#f8fbff" stroke="#91a9c6" stroke-width="2"/>
<text x="570.0" y="352.5" text-anchor="middle" font-family="Microsoft YaHei, SimHei, Arial, sans-serif" font-size="17" font-weight="700" fill="#172033">杯/瓶有效性判断</text>
<rect x="430.0" y="480.0" width="280.0" height="78.0" rx="16" ry="16" fill="#f8fbff" stroke="#91a9c6" stroke-width="2"/>
<text x="570.0" y="517.5" text-anchor="middle" font-family="Microsoft YaHei, SimHei, Arial, sans-serif" font-size="17" font-weight="700" fill="#172033">计算头部距离</text>
<text x="570.0" y="542.5" text-anchor="middle" font-family="Microsoft YaHei, SimHei, Arial, sans-serif" font-size="12" font-weight="400" fill="#4b5563">杯/瓶中心到头部</text>
<rect x="430.0" y="640.0" width="280.0" height="78.0" rx="16" ry="16" fill="#f8fbff" stroke="#91a9c6" stroke-width="2"/>
<text x="570.0" y="677.5" text-anchor="middle" font-family="Microsoft YaHei, SimHei, Arial, sans-serif" font-size="17" font-weight="700" fill="#172033">距离归一化</text>
<text x="570.0" y="702.5" text-anchor="middle" font-family="Microsoft YaHei, SimHei, Arial, sans-serif" font-size="12" font-weight="400" fill="#4b5563">人体框尺度参考</text>
<rect x="430.0" y="800.0" width="280.0" height="78.0" rx="16" ry="16" fill="#fff4d6" stroke="#d8b86d" stroke-width="2"/>
<text x="570.0" y="847.5" text-anchor="middle" font-family="Microsoft YaHei, SimHei, Arial, sans-serif" font-size="17" font-weight="700" fill="#172033">距离阈值判断</text>
<rect x="430.0" y="960.0" width="280.0" height="78.0" rx="16" ry="16" fill="#fff4d6" stroke="#d8b86d" stroke-width="2"/>
<text x="570.0" y="1007.5" text-anchor="middle" font-family="Microsoft YaHei, SimHei, Arial, sans-serif" font-size="17" font-weight="700" fill="#172033">连续命中判断</text>
<rect x="820.0" y="960.0" width="280.0" height="78.0" rx="16" ry="16" fill="#f0e7ff" stroke="#b9a0de" stroke-width="2"/>
<text x="960.0" y="1007.5" text-anchor="middle" font-family="Microsoft YaHei, SimHei, Arial, sans-serif" font-size="17" font-weight="700" fill="#172033">DrinkDetected</text>
<rect x="820.0" y="800.0" width="280.0" height="78.0" rx="16" ry="16" fill="#fff4d6" stroke="#d8b86d" stroke-width="2"/>
<text x="960.0" y="847.5" text-anchor="middle" font-family="Microsoft YaHei, SimHei, Arial, sans-serif" font-size="17" font-weight="700" fill="#172033">Running 状态</text>
<rect x="820.0" y="640.0" width="280.0" height="78.0" rx="16" ry="16" fill="#fff4d6" stroke="#d8b86d" stroke-width="2"/>
<text x="960.0" y="687.5" text-anchor="middle" font-family="Microsoft YaHei, SimHei, Arial, sans-serif" font-size="17" font-weight="700" fill="#172033">饮水定时器计时</text>
<rect x="820.0" y="480.0" width="280.0" height="78.0" rx="16" ry="16" fill="#fff4d6" stroke="#d8b86d" stroke-width="2"/>
<text x="960.0" y="517.5" text-anchor="middle" font-family="Microsoft YaHei, SimHei, Arial, sans-serif" font-size="17" font-weight="700" fill="#172033">定时器判断</text>
<text x="960.0" y="542.5" text-anchor="middle" font-family="Microsoft YaHei, SimHei, Arial, sans-serif" font-size="12" font-weight="400" fill="#4b5563">达到提醒间隔</text>
<rect x="1190.0" y="680.0" width="300.0" height="88.0" rx="16" ry="16" fill="#fff4d6" stroke="#d8b86d" stroke-width="2"/>
<text x="1340.0" y="732.5" text-anchor="middle" font-family="Microsoft YaHei, SimHei, Arial, sans-serif" font-size="17" font-weight="700" fill="#172033">饮水状态融合</text>
<rect x="1190.0" y="900.0" width="300.0" height="78.0" rx="16" ry="16" fill="#fff4d6" stroke="#d8b86d" stroke-width="2"/>
<text x="1340.0" y="937.5" text-anchor="middle" font-family="Microsoft YaHei, SimHei, Arial, sans-serif" font-size="17" font-weight="700" fill="#172033">Confirm 确认</text>
<text x="1340.0" y="962.5" text-anchor="middle" font-family="Microsoft YaHei, SimHei, Arial, sans-serif" font-size="12" font-weight="400" fill="#4b5563">确认 active 提醒</text>
<rect x="1580.0" y="290.0" width="270.0" height="78.0" rx="16" ry="16" fill="#f0e7ff" stroke="#b9a0de" stroke-width="2"/>
<text x="1715.0" y="327.5" text-anchor="middle" font-family="Microsoft YaHei, SimHei, Arial, sans-serif" font-size="17" font-weight="700" fill="#172033">Normal</text>
<text x="1715.0" y="352.5" text-anchor="middle" font-family="Microsoft YaHei, SimHei, Arial, sans-serif" font-size="12" font-weight="400" fill="#4b5563">无提醒或监测中</text>
<rect x="1580.0" y="470.0" width="270.0" height="78.0" rx="16" ry="16" fill="#f0e7ff" stroke="#b9a0de" stroke-width="2"/>
<text x="1715.0" y="517.5" text-anchor="middle" font-family="Microsoft YaHei, SimHei, Arial, sans-serif" font-size="17" font-weight="700" fill="#172033">NeedRemind</text>
<rect x="1580.0" y="625.0" width="270.0" height="78.0" rx="16" ry="16" fill="#f0e7ff" stroke="#b9a0de" stroke-width="2"/>
<text x="1715.0" y="672.5" text-anchor="middle" font-family="Microsoft YaHei, SimHei, Arial, sans-serif" font-size="17" font-weight="700" fill="#172033">触发提醒</text>
<rect x="1580.0" y="790.0" width="270.0" height="78.0" rx="16" ry="16" fill="#f0e7ff" stroke="#b9a0de" stroke-width="2"/>
<text x="1715.0" y="827.5" text-anchor="middle" font-family="Microsoft YaHei, SimHei, Arial, sans-serif" font-size="17" font-weight="700" fill="#172033">DrinkDetected</text>
<text x="1715.0" y="852.5" text-anchor="middle" font-family="Microsoft YaHei, SimHei, Arial, sans-serif" font-size="12" font-weight="400" fill="#4b5563">记录饮水事件</text>
<rect x="1580.0" y="950.0" width="270.0" height="78.0" rx="16" ry="16" fill="#f0e7ff" stroke="#b9a0de" stroke-width="2"/>
<text x="1715.0" y="997.5" text-anchor="middle" font-family="Microsoft YaHei, SimHei, Arial, sans-serif" font-size="17" font-weight="700" fill="#172033">清除本次提醒</text>
<rect x="1580.0" y="1120.0" width="270.0" height="78.0" rx="16" ry="16" fill="#f0e7ff" stroke="#b9a0de" stroke-width="2"/>
<text x="1715.0" y="1167.5" text-anchor="middle" font-family="Microsoft YaHei, SimHei, Arial, sans-serif" font-size="17" font-weight="700" fill="#172033">返回监测</text>
</svg>
