<?xml version="1.0" encoding="UTF-8"?>
<svg xmlns="http://www.w3.org/2000/svg" width="1900" height="1360" viewBox="0 0 1900 1360">
<rect width="100%" height="100%" fill="#FFFFFF"/>
<text x="950.0" y="58.0" text-anchor="middle" font-family="Microsoft YaHei, SimHei, Arial, sans-serif" font-size="28" font-weight="800" fill="#172033">图2-5 手势状态机流程图</text>
<text x="230.0" y="118.0" text-anchor="middle" font-family="Microsoft YaHei, SimHei, Arial, sans-serif" font-size="20" font-weight="700" fill="#4b5563">识别链路</text>
<text x="690.0" y="418.0" text-anchor="middle" font-family="Microsoft YaHei, SimHei, Arial, sans-serif" font-size="20" font-weight="700" fill="#4b5563">防抖状态机</text>
<text x="1485.0" y="118.0" text-anchor="middle" font-family="Microsoft YaHei, SimHei, Arial, sans-serif" font-size="20" font-weight="700" fill="#4b5563">业务动作</text>
<text x="1020.0" y="1095.0" text-anchor="middle" font-family="Microsoft YaHei, SimHei, Arial, sans-serif" font-size="20" font-weight="700" fill="#4b5563">触发后处理</text>
<polyline points="230.0,228.0 230.0,300.0" fill="none" stroke="#43556f" stroke-width="3" stroke-linecap="round" stroke-linejoin="round"/>
<polygon points="230.0,300.0 224.6,288.0 235.4,288.0" fill="#43556f"/>
<polyline points="230.0,378.0 230.0,450.0" fill="none" stroke="#43556f" stroke-width="3" stroke-linecap="round" stroke-linejoin="round"/>
<polygon points="230.0,450.0 224.6,438.0 235.4,438.0" fill="#43556f"/>
<polyline points="370.0,489.0 540.0,489.0" fill="none" stroke="#43556f" stroke-width="3" stroke-linecap="round" stroke-linejoin="round"/>
<polygon points="540.0,489.0 528.0,494.4 528.0,483.6" fill="#43556f"/>
<polyline points="690.0,528.0 690.0,605.0" fill="none" stroke="#43556f" stroke-width="3" stroke-linecap="round" stroke-linejoin="round"/>
<polygon points="690.0,605.0 684.6,593.0 695.4,593.0" fill="#43556f"/>
<polyline points="690.0,683.0 690.0,760.0" fill="none" stroke="#43556f" stroke-width="3" stroke-linecap="round" stroke-linejoin="round"/>
<polygon points="690.0,760.0 684.6,748.0 695.4,748.0" fill="#43556f"/>
<polyline points="690.0,838.0 690.0,915.0" fill="none" stroke="#43556f" stroke-width="3" stroke-linecap="round" stroke-linejoin="round"/>
<polygon points="690.0,915.0 684.6,903.0 695.4,903.0" fill="#43556f"/>
<polyline points="840.0,954.0 930.0,954.0" fill="none" stroke="#43556f" stroke-width="3" stroke-linecap="round" stroke-linejoin="round"/>
<polygon points="930.0,954.0 918.0,959.4 918.0,948.6" fill="#43556f"/>
<polyline points="1230.0,954.0 1260.0,954.0 1260.0,204.0 1320.0,204.0" fill="none" stroke="#43556f" stroke-width="3" stroke-linecap="round" stroke-linejoin="round"/>
<polygon points="1320.0,204.0 1308.0,209.4 1308.0,198.6" fill="#43556f"/>
<polyline points="1230.0,954.0 1260.0,954.0 1260.0,359.0 1320.0,359.0" fill="none" stroke="#43556f" stroke-width="3" stroke-linecap="round" stroke-linejoin="round"/>
<polygon points="1320.0,359.0 1308.0,364.4 1308.0,353.6" fill="#43556f"/>
<polyline points="1230.0,954.0 1260.0,954.0 1260.0,514.0 1320.0,514.0" fill="none" stroke="#43556f" stroke-width="3" stroke-linecap="round" stroke-linejoin="round"/>
<polygon points="1320.0,514.0 1308.0,519.4 1308.0,508.6" fill="#43556f"/>
<polyline points="1230.0,954.0 1260.0,954.0 1260.0,669.0 1320.0,669.0" fill="none" stroke="#43556f" stroke-width="3" stroke-linecap="round" stroke-linejoin="round"/>
<polygon points="1320.0,669.0 1308.0,674.4 1308.0,663.6" fill="#43556f"/>
<polyline points="1650.0,204.0 1745.0,204.0 1745.0,1184.0 1620.0,1184.0" fill="none" stroke="#43556f" stroke-width="3" stroke-linecap="round" stroke-linejoin="round"/>
<polygon points="1620.0,1184.0 1632.0,1178.6 1632.0,1189.4" fill="#43556f"/>
<polyline points="1650.0,359.0 1745.0,359.0 1745.0,1184.0 1620.0,1184.0" fill="none" stroke="#43556f" stroke-width="3" stroke-linecap="round" stroke-linejoin="round"/>
<polygon points="1620.0,1184.0 1632.0,1178.6 1632.0,1189.4" fill="#43556f"/>
<polyline points="1650.0,514.0 1745.0,514.0 1745.0,1184.0 1620.0,1184.0" fill="none" stroke="#43556f" stroke-width="3" stroke-linecap="round" stroke-linejoin="round"/>
<polygon points="1620.0,1184.0 1632.0,1178.6 1632.0,1189.4" fill="#43556f"/>
<polyline points="1650.0,669.0 1745.0,669.0 1745.0,1184.0 1620.0,1184.0" fill="none" stroke="#43556f" stroke-width="3" stroke-linecap="round" stroke-linejoin="round"/>
<polygon points="1620.0,1184.0 1632.0,1178.6 1632.0,1189.4" fill="#43556f"/>
<polyline points="1320.0,1184.0 1170.0,1184.0" fill="none" stroke="#43556f" stroke-width="3" stroke-linecap="round" stroke-linejoin="round"/>
<polygon points="1170.0,1184.0 1182.0,1178.6 1182.0,1189.4" fill="#43556f"/>
<polyline points="870.0,1184.0 720.0,1184.0" fill="none" stroke="#43556f" stroke-width="3" stroke-linecap="round" stroke-linejoin="round"/>
<polygon points="720.0,1184.0 732.0,1178.6 732.0,1189.4" fill="#43556f"/>
<polyline points="420.0,1184.0 20.0,1184.0 20.0,189.0 90.0,189.0" fill="none" stroke="#43556f" stroke-width="3" stroke-linecap="round" stroke-linejoin="round"/>
<polygon points="90.0,189.0 78.0,194.4 78.0,183.6" fill="#43556f"/>
<rect x="90.0" y="150.0" width="280.0" height="78.0" rx="16" ry="16" fill="#dbeafe" stroke="#7aa7d9" stroke-width="2"/>
<text x="230.0" y="197.5" text-anchor="middle" font-family="Microsoft YaHei, SimHei, Arial, sans-serif" font-size="17" font-weight="700" fill="#172033">摄像头帧</text>
<rect x="90.0" y="300.0" width="280.0" height="78.0" rx="16" ry="16" fill="#ebe9ff" stroke="#aaa3dd" stroke-width="2"/>
<text x="230.0" y="347.5" text-anchor="middle" font-family="Microsoft YaHei, SimHei, Arial, sans-serif" font-size="17" font-weight="700" fill="#172033">手势模型识别</text>
<rect x="90.0" y="450.0" width="280.0" height="78.0" rx="16" ry="16" fill="#f8fbff" stroke="#91a9c6" stroke-width="2"/>
<text x="230.0" y="497.5" text-anchor="middle" font-family="Microsoft YaHei, SimHei, Arial, sans-serif" font-size="17" font-weight="700" fill="#172033">业务手势映射</text>
<rect x="540.0" y="450.0" width="300.0" height="78.0" rx="16" ry="16" fill="#fff4d6" stroke="#d8b86d" stroke-width="2"/>
<text x="690.0" y="497.5" text-anchor="middle" font-family="Microsoft YaHei, SimHei, Arial, sans-serif" font-size="17" font-weight="700" fill="#172033">置信度判断</text>
<rect x="540.0" y="605.0" width="300.0" height="78.0" rx="16" ry="16" fill="#fff4d6" stroke="#d8b86d" stroke-width="2"/>
<text x="690.0" y="642.5" text-anchor="middle" font-family="Microsoft YaHei, SimHei, Arial, sans-serif" font-size="17" font-weight="700" fill="#172033">稳定计数</text>
<text x="690.0" y="667.5" text-anchor="middle" font-family="Microsoft YaHei, SimHei, Arial, sans-serif" font-size="12" font-weight="400" fill="#4b5563">连续命中后继续</text>
<rect x="540.0" y="760.0" width="300.0" height="78.0" rx="16" ry="16" fill="#fff4d6" stroke="#d8b86d" stroke-width="2"/>
<text x="690.0" y="797.5" text-anchor="middle" font-family="Microsoft YaHei, SimHei, Arial, sans-serif" font-size="17" font-weight="700" fill="#172033">冷却判断</text>
<text x="690.0" y="822.5" text-anchor="middle" font-family="Microsoft YaHei, SimHei, Arial, sans-serif" font-size="12" font-weight="400" fill="#4b5563">避免重复触发</text>
<rect x="540.0" y="915.0" width="300.0" height="78.0" rx="16" ry="16" fill="#fff4d6" stroke="#d8b86d" stroke-width="2"/>
<text x="690.0" y="952.5" text-anchor="middle" font-family="Microsoft YaHei, SimHei, Arial, sans-serif" font-size="17" font-weight="700" fill="#172033">释放锁判断</text>
<text x="690.0" y="977.5" text-anchor="middle" font-family="Microsoft YaHei, SimHei, Arial, sans-serif" font-size="12" font-weight="400" fill="#4b5563">等待手势离开</text>
<rect x="930.0" y="915.0" width="300.0" height="78.0" rx="16" ry="16" fill="#f0e7ff" stroke="#b9a0de" stroke-width="2"/>
<text x="1080.0" y="962.5" text-anchor="middle" font-family="Microsoft YaHei, SimHei, Arial, sans-serif" font-size="17" font-weight="700" fill="#172033">触发手势事件</text>
<rect x="1320.0" y="160.0" width="330.0" height="88.0" rx="16" ry="16" fill="#f0e7ff" stroke="#b9a0de" stroke-width="2"/>
<text x="1485.0" y="202.5" text-anchor="middle" font-family="Microsoft YaHei, SimHei, Arial, sans-serif" font-size="17" font-weight="700" fill="#172033">Start</text>
<text x="1485.0" y="227.5" text-anchor="middle" font-family="Microsoft YaHei, SimHei, Arial, sans-serif" font-size="12" font-weight="400" fill="#4b5563">Idle -&gt; Running</text>
<rect x="1320.0" y="315.0" width="330.0" height="88.0" rx="16" ry="16" fill="#f0e7ff" stroke="#b9a0de" stroke-width="2"/>
<text x="1485.0" y="357.5" text-anchor="middle" font-family="Microsoft YaHei, SimHei, Arial, sans-serif" font-size="17" font-weight="700" fill="#172033">Stop</text>
<text x="1485.0" y="382.5" text-anchor="middle" font-family="Microsoft YaHei, SimHei, Arial, sans-serif" font-size="12" font-weight="400" fill="#4b5563">Running -&gt; Idle</text>
<rect x="1320.0" y="470.0" width="330.0" height="88.0" rx="16" ry="16" fill="#f0e7ff" stroke="#b9a0de" stroke-width="2"/>
<text x="1485.0" y="504.5" text-anchor="middle" font-family="Microsoft YaHei, SimHei, Arial, sans-serif" font-size="17" font-weight="700" fill="#172033">Confirm</text>
<text x="1485.0" y="529.5" text-anchor="middle" font-family="Microsoft YaHei, SimHei, Arial, sans-serif" font-size="12" font-weight="400" fill="#4b5563">确认提醒</text>
<text x="1485.0" y="545.5" text-anchor="middle" font-family="Microsoft YaHei, SimHei, Arial, sans-serif" font-size="12" font-weight="400" fill="#4b5563">不切换主状态</text>
<rect x="1320.0" y="625.0" width="330.0" height="88.0" rx="16" ry="16" fill="#f0e7ff" stroke="#b9a0de" stroke-width="2"/>
<text x="1485.0" y="659.5" text-anchor="middle" font-family="Microsoft YaHei, SimHei, Arial, sans-serif" font-size="17" font-weight="700" fill="#172033">Rock</text>
<text x="1485.0" y="684.5" text-anchor="middle" font-family="Microsoft YaHei, SimHei, Arial, sans-serif" font-size="12" font-weight="400" fill="#4b5563">互动反馈</text>
<text x="1485.0" y="700.5" text-anchor="middle" font-family="Microsoft YaHei, SimHei, Arial, sans-serif" font-size="12" font-weight="400" fill="#4b5563">不切换主状态</text>
<rect x="1320.0" y="1145.0" width="300.0" height="78.0" rx="16" ry="16" fill="#fff4d6" stroke="#d8b86d" stroke-width="2"/>
<text x="1470.0" y="1192.5" text-anchor="middle" font-family="Microsoft YaHei, SimHei, Arial, sans-serif" font-size="17" font-weight="700" fill="#172033">进入冷却</text>
<rect x="870.0" y="1145.0" width="300.0" height="78.0" rx="16" ry="16" fill="#fff4d6" stroke="#d8b86d" stroke-width="2"/>
<text x="1020.0" y="1192.5" text-anchor="middle" font-family="Microsoft YaHei, SimHei, Arial, sans-serif" font-size="17" font-weight="700" fill="#172033">等待释放</text>
<rect x="420.0" y="1145.0" width="300.0" height="78.0" rx="16" ry="16" fill="#fff4d6" stroke="#d8b86d" stroke-width="2"/>
<text x="570.0" y="1192.5" text-anchor="middle" font-family="Microsoft YaHei, SimHei, Arial, sans-serif" font-size="17" font-weight="700" fill="#172033">返回识别循环</text>
</svg>

