<?xml version="1.0" encoding="UTF-8"?>
<svg xmlns="http://www.w3.org/2000/svg" width="2000" height="1920" viewBox="0 0 2000 1920">
<rect width="100%" height="100%" fill="#FFFFFF"/>
<text x="1000.0" y="58.0" text-anchor="middle" font-family="Microsoft YaHei, SimHei, Arial, sans-serif" font-size="28" font-weight="800" fill="#172033">图2-4 主程序运行流程图</text>
<text x="1000.0" y="82.0" text-anchor="middle" font-family="Microsoft YaHei, SimHei, Arial, sans-serif" font-size="18" font-weight="700" fill="#4b5563">启动与初始化</text>
<text x="1000.0" y="1180.0" text-anchor="middle" font-family="Microsoft YaHei, SimHei, Arial, sans-serif" font-size="18" font-weight="700" fill="#4b5563">状态分支</text>
<text x="1000.0" y="1630.0" text-anchor="middle" font-family="Microsoft YaHei, SimHei, Arial, sans-serif" font-size="18" font-weight="700" fill="#4b5563">输出与回环</text>
<polyline points="1000.0,159.0 1000.0,230.0" fill="none" stroke="#43556f" stroke-width="3" stroke-linecap="round" stroke-linejoin="round"/>
<polygon points="1000.0,230.0 994.6,218.0 1005.4,218.0" fill="#43556f"/>
<polyline points="1000.0,294.0 1000.0,365.0" fill="none" stroke="#43556f" stroke-width="3" stroke-linecap="round" stroke-linejoin="round"/>
<polygon points="1000.0,365.0 994.6,353.0 1005.4,353.0" fill="#43556f"/>
<polyline points="1000.0,429.0 1000.0,500.0" fill="none" stroke="#43556f" stroke-width="3" stroke-linecap="round" stroke-linejoin="round"/>
<polygon points="1000.0,500.0 994.6,488.0 1005.4,488.0" fill="#43556f"/>
<polyline points="1000.0,564.0 1000.0,635.0" fill="none" stroke="#43556f" stroke-width="3" stroke-linecap="round" stroke-linejoin="round"/>
<polygon points="1000.0,635.0 994.6,623.0 1005.4,623.0" fill="#43556f"/>
<polyline points="1000.0,699.0 1000.0,770.0" fill="none" stroke="#43556f" stroke-width="3" stroke-linecap="round" stroke-linejoin="round"/>
<polygon points="1000.0,770.0 994.6,758.0 1005.4,758.0" fill="#43556f"/>
<polyline points="1000.0,834.0 1000.0,905.0" fill="none" stroke="#43556f" stroke-width="3" stroke-linecap="round" stroke-linejoin="round"/>
<polygon points="1000.0,905.0 994.6,893.0 1005.4,893.0" fill="#43556f"/>
<polyline points="1000.0,969.0 1000.0,1040.0" fill="none" stroke="#43556f" stroke-width="3" stroke-linecap="round" stroke-linejoin="round"/>
<polygon points="1000.0,1040.0 994.6,1028.0 1005.4,1028.0" fill="#43556f"/>
<polyline points="1000.0,1110.0 1000.0,1160.0 400.0,1160.0 400.0,1215.0" fill="none" stroke="#43556f" stroke-width="3" stroke-linecap="round" stroke-linejoin="round"/>
<polygon points="400.0,1215.0 394.6,1203.0 405.4,1203.0" fill="#43556f"/>
<polyline points="1000.0,1110.0 1000.0,1160.0 1460.0,1160.0 1460.0,1215.0" fill="none" stroke="#43556f" stroke-width="3" stroke-linecap="round" stroke-linejoin="round"/>
<polygon points="1460.0,1215.0 1454.6,1203.0 1465.4,1203.0" fill="#43556f"/>
<polyline points="560.0,1257.0 1290.0,1257.0" fill="none" stroke="#43556f" stroke-width="3" stroke-linecap="round" stroke-linejoin="round" stroke-dasharray="8 7"/>
<polygon points="1290.0,1257.0 1278.0,1262.4 1278.0,1251.6" fill="#43556f"/>
<polyline points="400.0,1335.0 400.0,1425.0 900.0,1425.0 900.0,1475.0" fill="none" stroke="#43556f" stroke-width="3" stroke-linecap="round" stroke-linejoin="round"/>
<polygon points="900.0,1475.0 894.6,1463.0 905.4,1463.0" fill="#43556f"/>
<polyline points="1460.0,1365.0 1460.0,1425.0 1100.0,1425.0 1100.0,1475.0" fill="none" stroke="#43556f" stroke-width="3" stroke-linecap="round" stroke-linejoin="round"/>
<polygon points="1100.0,1475.0 1094.6,1463.0 1105.4,1463.0" fill="#43556f"/>
<polyline points="880.0,1563.0 880.0,1605.0 565.0,1605.0 565.0,1655.0" fill="none" stroke="#43556f" stroke-width="3" stroke-linecap="round" stroke-linejoin="round"/>
<polygon points="565.0,1655.0 559.6,1643.0 570.4,1643.0" fill="#43556f"/>
<polyline points="1000.0,1563.0 1000.0,1605.0 1000.0,1655.0" fill="none" stroke="#43556f" stroke-width="3" stroke-linecap="round" stroke-linejoin="round"/>
<polygon points="1000.0,1655.0 994.6,1643.0 1005.4,1643.0" fill="#43556f"/>
<polyline points="1120.0,1563.0 1120.0,1605.0 1435.0,1605.0 1435.0,1655.0" fill="none" stroke="#43556f" stroke-width="3" stroke-linecap="round" stroke-linejoin="round"/>
<polygon points="1435.0,1655.0 1429.6,1643.0 1440.4,1643.0" fill="#43556f"/>
<polyline points="565.0,1731.0 565.0,1780.0 1000.0,1780.0 1000.0,1835.0" fill="none" stroke="#43556f" stroke-width="3" stroke-linecap="round" stroke-linejoin="round"/>
<polygon points="1000.0,1835.0 994.6,1823.0 1005.4,1823.0" fill="#43556f"/>
<polyline points="1000.0,1731.0 1000.0,1780.0 1000.0,1835.0" fill="none" stroke="#43556f" stroke-width="3" stroke-linecap="round" stroke-linejoin="round"/>
<polygon points="1000.0,1835.0 994.6,1823.0 1005.4,1823.0" fill="#43556f"/>
<polyline points="1435.0,1731.0 1435.0,1780.0 1000.0,1780.0 1000.0,1835.0" fill="none" stroke="#43556f" stroke-width="3" stroke-linecap="round" stroke-linejoin="round"/>
<polygon points="1000.0,1835.0 994.6,1823.0 1005.4,1823.0" fill="#43556f"/>
<polyline points="865.0,1870.0 115.0,1870.0 115.0,667.0 850.0,667.0" fill="none" stroke="#43556f" stroke-width="3" stroke-linecap="round" stroke-linejoin="round"/>
<polygon points="850.0,667.0 838.0,672.4 838.0,661.6" fill="#43556f"/>
<polyline points="1150.0,667.0 1510.0,667.0" fill="none" stroke="#43556f" stroke-width="3" stroke-linecap="round" stroke-linejoin="round"/>
<polygon points="1510.0,667.0 1498.0,672.4 1498.0,661.6" fill="#43556f"/>
<polyline points="1645.0,705.0 1645.0,805.0" fill="none" stroke="#43556f" stroke-width="3" stroke-linecap="round" stroke-linejoin="round"/>
<polygon points="1645.0,805.0 1639.6,793.0 1650.4,793.0" fill="#43556f"/>
<polyline points="1645.0,875.0 1645.0,975.0" fill="none" stroke="#43556f" stroke-width="3" stroke-linecap="round" stroke-linejoin="round"/>
<polygon points="1645.0,975.0 1639.6,963.0 1650.4,963.0" fill="#43556f"/>
<rect x="850.0" y="95.0" width="300.0" height="64.0" rx="16" ry="16" fill="#f8fbff" stroke="#91a9c6" stroke-width="2"/>
<text x="1000.0" y="135.5" text-anchor="middle" font-family="Microsoft YaHei, SimHei, Arial, sans-serif" font-size="17" font-weight="700" fill="#172033">程序启动</text>
<rect x="850.0" y="230.0" width="300.0" height="64.0" rx="16" ry="16" fill="#f8fbff" stroke="#91a9c6" stroke-width="2"/>
<text x="1000.0" y="270.5" text-anchor="middle" font-family="Microsoft YaHei, SimHei, Arial, sans-serif" font-size="17" font-weight="700" fill="#172033">读取运行配置</text>
<rect x="850.0" y="365.0" width="300.0" height="64.0" rx="16" ry="16" fill="#f8fbff" stroke="#91a9c6" stroke-width="2"/>
<text x="1000.0" y="405.5" text-anchor="middle" font-family="Microsoft YaHei, SimHei, Arial, sans-serif" font-size="17" font-weight="700" fill="#172033">初始化硬件与模块</text>
<rect x="850.0" y="500.0" width="300.0" height="64.0" rx="16" ry="16" fill="#ebe9ff" stroke="#aaa3dd" stroke-width="2"/>
<text x="1000.0" y="540.5" text-anchor="middle" font-family="Microsoft YaHei, SimHei, Arial, sans-serif" font-size="17" font-weight="700" fill="#172033">加载 RKNN 模型</text>
<rect x="850.0" y="635.0" width="300.0" height="64.0" rx="16" ry="16" fill="#fff4d6" stroke="#d8b86d" stroke-width="2"/>
<text x="1000.0" y="675.5" text-anchor="middle" font-family="Microsoft YaHei, SimHei, Arial, sans-serif" font-size="17" font-weight="700" fill="#172033">主循环</text>
<rect x="850.0" y="770.0" width="300.0" height="64.0" rx="16" ry="16" fill="#f8fbff" stroke="#91a9c6" stroke-width="2"/>
<text x="1000.0" y="810.5" text-anchor="middle" font-family="Microsoft YaHei, SimHei, Arial, sans-serif" font-size="17" font-weight="700" fill="#172033">摄像头采集</text>
<rect x="850.0" y="905.0" width="300.0" height="64.0" rx="16" ry="16" fill="#f8fbff" stroke="#91a9c6" stroke-width="2"/>
<text x="1000.0" y="945.5" text-anchor="middle" font-family="Microsoft YaHei, SimHei, Arial, sans-serif" font-size="17" font-weight="700" fill="#172033">图像预处理</text>
<rect x="850.0" y="1040.0" width="300.0" height="70.0" rx="16" ry="16" fill="#fff4d6" stroke="#d8b86d" stroke-width="2"/>
<text x="1000.0" y="1083.5" text-anchor="middle" font-family="Microsoft YaHei, SimHei, Arial, sans-serif" font-size="17" font-weight="700" fill="#172033">系统状态判断</text>
<rect x="240.0" y="1215.0" width="320.0" height="120.0" rx="16" ry="16" fill="#fff4d6" stroke="#d8b86d" stroke-width="2"/>
<text x="400.0" y="1265.5" text-anchor="middle" font-family="Microsoft YaHei, SimHei, Arial, sans-serif" font-size="17" font-weight="700" fill="#172033">Idle</text>
<text x="400.0" y="1290.5" text-anchor="middle" font-family="Microsoft YaHei, SimHei, Arial, sans-serif" font-size="12" font-weight="400" fill="#4b5563">手势识别</text>
<text x="400.0" y="1306.5" text-anchor="middle" font-family="Microsoft YaHei, SimHei, Arial, sans-serif" font-size="12" font-weight="400" fill="#4b5563">等待 Start</text>
<rect x="1290.0" y="1215.0" width="340.0" height="150.0" rx="16" ry="16" fill="#ebe9ff" stroke="#aaa3dd" stroke-width="2"/>
<text x="1460.0" y="1272.5" text-anchor="middle" font-family="Microsoft YaHei, SimHei, Arial, sans-serif" font-size="17" font-weight="700" fill="#172033">Running</text>
<text x="1460.0" y="1297.5" text-anchor="middle" font-family="Microsoft YaHei, SimHei, Arial, sans-serif" font-size="12" font-weight="400" fill="#4b5563">多模型推理</text>
<text x="1460.0" y="1313.5" text-anchor="middle" font-family="Microsoft YaHei, SimHei, Arial, sans-serif" font-size="12" font-weight="400" fill="#4b5563">坐姿判断</text>
<text x="1460.0" y="1329.5" text-anchor="middle" font-family="Microsoft YaHei, SimHei, Arial, sans-serif" font-size="12" font-weight="400" fill="#4b5563">饮水判断</text>
<rect x="820.0" y="1475.0" width="360.0" height="88.0" rx="16" ry="16" fill="#fff4d6" stroke="#d8b86d" stroke-width="2"/>
<text x="1000.0" y="1518.0" text-anchor="middle" font-family="Microsoft YaHei, SimHei, Arial, sans-serif" font-size="18" font-weight="700" fill="#172033">状态融合</text>
<text x="1000.0" y="1544.0" text-anchor="middle" font-family="Microsoft YaHei, SimHei, Arial, sans-serif" font-size="12" font-weight="400" fill="#4b5563">汇总手势、坐姿与饮水状态</text>
<rect x="430.0" y="1655.0" width="270.0" height="76.0" rx="16" ry="16" fill="#f0e7ff" stroke="#b9a0de" stroke-width="2"/>
<text x="565.0" y="1701.5" text-anchor="middle" font-family="Microsoft YaHei, SimHei, Arial, sans-serif" font-size="17" font-weight="700" fill="#172033">ST7789 显示</text>
<rect x="865.0" y="1655.0" width="270.0" height="76.0" rx="16" ry="16" fill="#f0e7ff" stroke="#b9a0de" stroke-width="2"/>
<text x="1000.0" y="1701.5" text-anchor="middle" font-family="Microsoft YaHei, SimHei, Arial, sans-serif" font-size="17" font-weight="700" fill="#172033">HTTP-FLV 输出</text>
<rect x="1300.0" y="1655.0" width="270.0" height="76.0" rx="16" ry="16" fill="#f0e7ff" stroke="#b9a0de" stroke-width="2"/>
<text x="1435.0" y="1701.5" text-anchor="middle" font-family="Microsoft YaHei, SimHei, Arial, sans-serif" font-size="17" font-weight="700" fill="#172033">MQTT 同步</text>
<rect x="865.0" y="1835.0" width="270.0" height="70.0" rx="16" ry="16" fill="#fff4d6" stroke="#d8b86d" stroke-width="2"/>
<text x="1000.0" y="1878.5" text-anchor="middle" font-family="Microsoft YaHei, SimHei, Arial, sans-serif" font-size="17" font-weight="700" fill="#172033">返回主循环</text>
<rect x="1510.0" y="635.0" width="270.0" height="70.0" rx="16" ry="16" fill="#fff4d6" stroke="#d8b86d" stroke-width="2"/>
<text x="1645.0" y="678.5" text-anchor="middle" font-family="Microsoft YaHei, SimHei, Arial, sans-serif" font-size="17" font-weight="700" fill="#172033">停止信号</text>
<rect x="1510.0" y="805.0" width="270.0" height="70.0" rx="16" ry="16" fill="#f8fbff" stroke="#91a9c6" stroke-width="2"/>
<text x="1645.0" y="848.5" text-anchor="middle" font-family="Microsoft YaHei, SimHei, Arial, sans-serif" font-size="17" font-weight="700" fill="#172033">释放资源</text>
<rect x="1510.0" y="975.0" width="270.0" height="70.0" rx="16" ry="16" fill="#f8fbff" stroke="#91a9c6" stroke-width="2"/>
<text x="1645.0" y="1018.5" text-anchor="middle" font-family="Microsoft YaHei, SimHei, Arial, sans-serif" font-size="17" font-weight="700" fill="#172033">程序结束</text>
</svg>

